<svg xmlns="http://www.w3.org/2000/svg" version="1.1" xmlns:xlink="http://www.w3.org/1999/xlink" xmlns:svgjs="http://svgjs.dev/svgjs" width="2000" height="1500" viewBox="0 0 2000 1500"><rect width="2000" height="1500" fill="#293040"></rect><g transform="matrix(0.75,0,0,0.75,249.090909090909,282.7536437246963)"><svg viewBox="0 0 396 247" data-background-color="#293040" preserveAspectRatio="xMidYMid meet" height="1247" width="2000" xmlns="http://www.w3.org/2000/svg" xmlns:xlink="http://www.w3.org/1999/xlink"><g id="tight-bounds" transform="matrix(1,0,0,1,0.2400000000000091,-0.09999999999999432)"><svg viewBox="0 0 395.52 247.2" height="247.2" width="395.52"><g><svg></svg></g><g><svg viewBox="0 0 395.52 247.2" height="247.2" width="395.52"><mask id="74cacfd7-d535-4b8a-be51-6cf66b1dc481"><rect width="395.52" height="247.2" fill="white"></rect><g transform="matrix(1,0,0,1,0,105.0930856507581)" id="clone"><svg viewBox="0 0 395.52 37.013828698483785" height="37.013828698483785" width="395.52"><g><svg viewBox="0 0 395.52 37.013828698483785" height="37.013828698483785" width="395.52"><g><svg viewBox="0 0 395.52 37.013828698483785" height="37.013828698483785" width="395.52"><g><svg viewBox="0 0 395.52 37.013828698483785" height="37.013828698483785" width="395.52"><g id="SvgjsG1129"><svg viewBox="0 0 395.52 37.013828698483785" height="37.013828698483785" width="395.52" id="SvgjsSvg1128"><g><svg viewBox="0 0 395.52 37.013828698483785" height="37.013828698483785" width="395.52"><g transform="matrix(1,0,0,1,0,0)"><svg width="395.52" viewBox="-1.02 -42.84 620.22 58.95" height="37.013828698483785" data-palette-color="#d5b263"><path d="M26-32.15L26-32.15Q26-33.03 26.16-33.36 26.32-33.69 26.81-33.81L26.81-33.81 35.21-35.84Q35.52-35.94 35.86-35.94L35.86-35.94Q36.21-35.94 36.33-35.73 36.45-35.52 36.45-34.89L36.45-34.89 36.16-31.05Q36.04-29.37 35.89-27.71 35.74-26.05 35.45-24.8L35.45-24.8 35.01-21.34Q34.81-19.8 34.64-18.01 34.47-16.21 34.28-13.99L34.28-13.99 33.13-1.95Q33.11-1.73 33.03-1.51 32.96-1.29 32.71-1.2L32.71-1.2Q32.54-1.12 31.92-0.88 31.3-0.63 30.44-0.32 29.59 0 28.61 0.35 27.64 0.71 26.76 1 25.88 1.29 25.2 1.49 24.51 1.68 24.27 1.68L24.27 1.68Q23.93 1.68 23.67 1.5 23.41 1.32 23.41 0.81L23.41 0.81Q23.41-2.15 23.75-5.24 24.1-8.33 24.37-11.38L24.37-11.38Q24.41-11.72 24.4-12.01 24.39-12.3 24.44-12.65L24.44-12.65 15.5-12.65 14.5-1.95Q14.48-1.73 14.42-1.53 14.36-1.32 14.09-1.2L14.09-1.2Q13.99-1.15 13.12-0.84 12.26-0.54 11.12-0.13 9.99 0.27 8.87 0.67 7.76 1.07 7.18 1.29L7.18 1.29Q6.88 1.42 6.46 1.55 6.03 1.68 5.62 1.68L5.62 1.68Q5.27 1.68 5.02 1.49 4.76 1.29 4.76 0.78L4.76 0.78Q4.76-0.39 4.85-1.89 4.93-3.39 5.05-5.04 5.18-6.69 5.35-8.42 5.52-10.16 5.69-11.84L5.69-11.84 5.74-12.55Q3.76-12.55 2.87-12.66 1.98-12.77 1.98-13.23L1.98-13.23Q1.98-13.55 2.34-14.06L2.34-14.06Q2.83-14.75 3.48-15.71 4.13-16.67 4.72-17.61 5.32-18.55 5.8-19.3 6.27-20.04 6.42-20.26L6.42-20.26 6.98-26.15Q6.98-26.2 7.03-26.88 7.08-27.56 7.15-28.5 7.23-29.44 7.31-30.44 7.4-31.45 7.47-32.15L7.47-32.15Q7.52-33.01 7.6-33.35 7.69-33.69 8.18-33.81L8.18-33.81 16.48-35.84Q16.8-35.94 17.14-35.94L17.14-35.94Q17.48-35.94 17.6-35.73 17.72-35.52 17.72-34.89L17.72-34.89Q17.55-33.13 17.46-31.69 17.36-30.25 17.25-29 17.14-27.76 17.02-26.64 16.89-25.51 16.67-24.34L16.67-24.34 16.19-20.56 25.05-20.65Q25.27-23.9 25.54-26.17 25.81-28.44 25.88-29.76L25.88-29.76Q25.95-31.01 25.98-31.54 26-32.08 26-32.15ZM39.45-10.35L39.45-10.35Q39.77-13.7 40.09-16.97 40.4-20.24 40.65-23.68L40.65-23.68Q40.7-24.49 40.81-24.79 40.92-25.1 41.35-25.2L41.35-25.2Q43.43-25.61 45.7-26.06 47.97-26.51 50.1-27.22L50.1-27.22Q50.17-27.25 50.31-27.25L50.31-27.25Q50.58-27.25 50.58-27.05L50.58-27.05 48.39-3.27Q48.31-2.47 48.22-2.16 48.12-1.86 47.68-1.76L47.68-1.76Q45.6-1.12 43.48-0.34 41.35 0.44 38.99 1.25L38.99 1.25Q38.91 1.27 38.77 1.27L38.77 1.27Q38.5 1.27 38.5 1.03L38.5 1.03Q38.5 1 38.55 0.37 38.6-0.27 38.68-1.27 38.77-2.27 38.86-3.52 38.96-4.76 39.07-6.01 39.18-7.25 39.28-8.4 39.38-9.55 39.45-10.35ZM41.28-29.83L41.28-29.83Q41.35-30.88 41.39-31.45 41.43-32.01 41.45-32.29 41.48-32.57 41.48-32.64 41.48-32.71 41.49-32.75 41.5-32.79 41.51-32.9 41.53-33.01 41.55-33.36 41.57-33.72 41.62-34.4 41.67-35.08 41.77-36.28L41.77-36.28Q41.82-37.08 41.93-37.39 42.04-37.7 42.48-37.79L42.48-37.79Q44.55-38.21 46.82-38.66 49.09-39.11 51.22-39.82L51.22-39.82Q51.29-39.84 51.44-39.84L51.44-39.84Q51.51-39.7 51.63-39.65L51.63-39.65 51.71-39.6 51.17-32.91Q51.1-32.1 50.99-31.79 50.88-31.47 50.46-31.4L50.46-31.4Q48.39-31.01 46.26-30.54 44.14-30.08 41.77-29.61L41.77-29.61Q41.7-29.59 41.55-29.59L41.55-29.59Q41.28-29.59 41.28-29.83ZM71.53-17.04L71.55-17.41Q71.31-17.97 70.88-18.55 70.45-19.14 69.89-19.63 69.33-20.12 68.67-20.42 68.01-20.73 67.28-20.73L67.28-20.73Q66.28-20.73 65.4-19.9 64.52-19.07 63.86-17.69 63.2-16.31 62.82-14.54 62.45-12.77 62.45-10.86L62.45-10.86Q62.45-9.69 62.65-8.65 62.86-7.62 63.3-6.84 63.74-6.05 64.44-5.59 65.13-5.13 66.11-5.13L66.11-5.13Q67.57-5.13 68.79-6.04 70.01-6.96 70.87-8.42L70.87-8.42Q70.89-8.94 70.94-9.64 70.99-10.35 71.06-11.36 71.14-12.38 71.25-13.76 71.36-15.14 71.53-17.04L71.53-17.04ZM82.15-25.71L79.63-2.66Q79.39-0.24 78.54 1.86 77.68 3.96 76.37 5.7 75.07 7.45 73.4 8.83 71.72 10.21 69.86 11.16 67.99 12.11 66.01 12.61 64.03 13.11 62.1 13.11L62.1 13.11Q61.08 13.11 60 13.04 58.93 12.96 57.91 12.76 56.88 12.55 55.95 12.17 55.02 11.79 54.29 11.21L54.29 11.21 54.29 11.18Q54.29 11.06 54.47 10.33 54.66 9.59 54.91 8.61 55.17 7.62 55.45 6.57 55.73 5.52 55.93 4.76L55.93 4.76Q56.03 4.42 56.12 4.3 56.22 4.17 56.34 4.17L56.34 4.17Q56.49 4.17 56.51 4.2L56.51 4.2Q57.22 4.66 57.84 4.97 58.47 5.27 59.16 5.46 59.86 5.64 60.69 5.71 61.52 5.79 62.62 5.79L62.62 5.79Q64.33 5.79 65.64 5.13 66.96 4.47 67.91 3.42 68.87 2.37 69.44 1.11 70.01-0.15 70.23-1.37L70.23-1.37Q68.48-0.2 66.67 0.54 64.86 1.27 63.03 1.27L63.03 1.27Q60.52 1.27 58.69 0.26 56.86-0.76 55.66-2.47 54.46-4.17 53.89-6.38 53.32-8.59 53.32-11.01L53.32-11.01Q53.32-12.92 53.67-14.86 54.02-16.8 54.72-18.6 55.41-20.41 56.44-21.98 57.47-23.56 58.81-24.73 60.15-25.9 61.79-26.57 63.42-27.25 65.35-27.25L65.35-27.25Q67.45-27.25 69.25-26.32 71.04-25.39 72.5-24.02L72.5-24.02Q72.55-24.46 72.58-24.72 72.6-24.98 72.7-25.12 72.8-25.27 73.03-25.34 73.26-25.42 73.7-25.51L73.7-25.51Q73.97-25.56 74.68-25.72 75.39-25.88 76.36-26.1 77.34-26.32 78.51-26.56 79.68-26.81 80.88-27.08L80.88-27.08Q81.17-27.15 81.42-27.15L81.42-27.15Q82.17-27.15 82.17-26.17L82.17-26.17Q82.17-26.05 82.17-25.94 82.17-25.83 82.15-25.71L82.15-25.71ZM85.37 0.37L88.15-35.5Q88.15-35.64 88.14-35.77 88.13-35.89 88.13-36.01L88.13-36.01Q88.13-36.23 88.3-36.39 88.47-36.55 89.13-36.72L89.13-36.72 95.99-38.35Q96.26-38.4 96.7-38.57 97.14-38.75 97.55-38.75L97.55-38.75Q98.41-38.75 98.41-37.96L98.41-37.96Q98.41-37.92 98.33-36.96 98.26-36.01 98.14-34.59 98.01-33.18 97.87-31.51 97.72-29.83 97.58-28.32 97.43-26.81 97.31-25.67 97.18-24.54 97.11-24.19L97.11-24.19Q98.26-24.83 99.5-25.39 100.75-25.95 102.01-26.37 103.26-26.78 104.52-27.01 105.78-27.25 106.95-27.25L106.95-27.25Q108.44-27.25 109.73-26.82 111.03-26.39 111.99-25.4 112.96-24.41 113.51-22.81 114.06-21.22 114.06-18.9L114.06-18.9Q114.06-18.31 114.03-17.69 114.01-17.07 113.93-16.41L113.93-16.41 112.88-6.42Q112.76-5.4 112.74-4.28 112.71-3.17 112.71-2L112.71-2Q112.71-1.81 112.72-1.67 112.74-1.54 112.74-1.44L112.74-1.44Q112.74-1.22 112.55-1.1 112.37-0.98 111.74-0.78L111.74-0.78 105.75 0.88Q105.49 0.95 105.05 1.11 104.61 1.27 104.19 1.27L104.19 1.27Q103.78 1.27 103.56 1.09 103.34 0.9 103.34 0.37L103.34 0.37Q103.51-1.46 103.62-2.59 103.73-3.71 103.79-4.38 103.85-5.05 103.9-5.41 103.95-5.76 103.97-6.04 104-6.32 104.05-6.68 104.09-7.03 104.16-7.71 104.22-8.4 104.33-9.52 104.44-10.64 104.61-12.48L104.61-12.48Q104.7-13.45 104.81-14.42 104.92-15.38 104.92-16.19L104.92-16.19Q104.92-17.21 104.81-18.05 104.7-18.9 104.42-19.49 104.14-20.09 103.65-20.43 103.17-20.78 102.41-20.78L102.41-20.78Q101.85-20.78 100.88-20.53 99.92-20.29 98.95-19.73 97.99-19.17 97.25-18.25 96.5-17.33 96.4-15.99L96.4-15.99Q96.21-14.11 96.1-12.92 95.99-11.72 95.92-10.94 95.84-10.16 95.81-9.69 95.77-9.23 95.74-8.84L95.74-8.84Q95.72-8.72 95.67-8.24 95.62-7.76 95.55-7.1 95.48-6.45 95.4-5.7 95.33-4.96 95.27-4.3 95.21-3.64 95.17-3.16 95.13-2.69 95.13-2.56L95.13-2.56Q95.13-2.37 95.15-2.23 95.16-2.1 95.16-1.98L95.16-1.98Q95.16-1.78 94.98-1.65 94.79-1.51 94.16-1.34L94.16-1.34 87.79 0.88Q87.52 0.98 87.08 1.12 86.64 1.27 86.22 1.27L86.22 1.27Q85.86 1.27 85.61 1.06 85.37 0.85 85.37 0.37L85.37 0.37ZM134.34 0.88L134.34 0.78Q134.46-1 134.58-2.66 134.7-4.32 134.8-5.88L134.8-5.88 135.68-17.41Q135.83-18.73 135.93-19.81 136.02-20.9 136.08-21.94 136.14-22.97 136.21-24.04 136.27-25.1 136.34-26.39L136.34-26.39Q135.53-26.42 134.64-26.42 133.75-26.42 132.78-26.42L132.78-26.42 128.06-26.42Q127.8-26.42 127.73-26.62 127.67-26.83 127.67-27L127.67-27 127.67-27.17 130.36-34.23 130.33-34.33Q130.33-34.45 130.49-34.53 130.65-34.62 131.21-34.67L131.21-34.67Q134.58-34.86 137.74-35.05 140.91-35.23 143.99-35.38 147.08-35.52 150.17-35.67 153.26-35.82 156.53-35.94L156.53-35.94Q156.82-35.94 157.15-35.86 157.48-35.79 157.48-35.33L157.48-35.33Q157.48-35.28 157.46-35.23 157.43-35.18 157.43-35.13L157.43-35.13Q157.04-34.13 156.71-33.23 156.38-32.32 156.07-31.45 155.75-30.57 155.42-29.66 155.09-28.76 154.7-27.76L154.7-27.76Q154.68-27.73 154.6-27.53 154.53-27.32 154.38-27.06 154.24-26.81 153.99-26.59 153.75-26.37 153.38-26.34L153.38-26.34Q153.26-26.37 153.14-26.37 153.01-26.37 152.87-26.37L152.87-26.37 146.35-26.37Q146.23-25.12 146.12-23.73 146.01-22.34 145.86-21.02L145.86-21.02 144.08-1.95Q144.05-1.73 143.99-1.51 143.93-1.29 143.66-1.2L143.66-1.2 136.76 1.29Q136.49 1.39 136.05 1.54 135.61 1.68 135.19 1.68L135.19 1.68Q134.85 1.68 134.59 1.51 134.34 1.34 134.34 0.88L134.34 0.88ZM156.82 0.37L159.6-35.5Q159.6-35.64 159.59-35.77 159.58-35.89 159.58-36.01L159.58-36.01Q159.58-36.23 159.75-36.39 159.92-36.55 160.58-36.72L160.58-36.72 167.44-38.35Q167.71-38.4 168.15-38.57 168.59-38.75 169-38.75L169-38.75Q169.86-38.75 169.86-37.96L169.86-37.96Q169.86-37.92 169.78-36.96 169.71-36.01 169.59-34.59 169.47-33.18 169.32-31.51 169.17-29.83 169.03-28.32 168.88-26.81 168.76-25.67 168.64-24.54 168.56-24.19L168.56-24.19Q169.71-24.83 170.96-25.39 172.2-25.95 173.46-26.37 174.72-26.78 175.97-27.01 177.23-27.25 178.4-27.25L178.4-27.25Q179.89-27.25 181.19-26.82 182.48-26.39 183.44-25.4 184.41-24.41 184.96-22.81 185.51-21.22 185.51-18.9L185.51-18.9Q185.51-18.31 185.48-17.69 185.46-17.07 185.39-16.41L185.39-16.41 184.34-6.42Q184.21-5.4 184.19-4.28 184.16-3.17 184.16-2L184.16-2Q184.16-1.81 184.18-1.67 184.19-1.54 184.19-1.44L184.19-1.44Q184.19-1.22 184.01-1.1 183.82-0.98 183.19-0.78L183.19-0.78 177.21 0.88Q176.94 0.95 176.5 1.11 176.06 1.27 175.64 1.27L175.64 1.27Q175.23 1.27 175.01 1.09 174.79 0.9 174.79 0.37L174.79 0.37Q174.96-1.46 175.07-2.59 175.18-3.71 175.24-4.38 175.3-5.05 175.35-5.41 175.4-5.76 175.42-6.04 175.45-6.32 175.5-6.68 175.55-7.03 175.61-7.71 175.67-8.4 175.78-9.52 175.89-10.64 176.06-12.48L176.06-12.48Q176.16-13.45 176.27-14.42 176.38-15.38 176.38-16.19L176.38-16.19Q176.38-17.21 176.27-18.05 176.16-18.9 175.88-19.49 175.6-20.09 175.11-20.43 174.62-20.78 173.86-20.78L173.86-20.78Q173.3-20.78 172.34-20.53 171.37-20.29 170.41-19.73 169.44-19.17 168.7-18.25 167.95-17.33 167.86-15.99L167.86-15.99Q167.66-14.11 167.55-12.92 167.44-11.72 167.37-10.94 167.29-10.16 167.26-9.69 167.22-9.23 167.2-8.84L167.2-8.84Q167.17-8.72 167.12-8.24 167.07-7.76 167-7.1 166.93-6.45 166.86-5.7 166.78-4.96 166.72-4.3 166.66-3.64 166.62-3.16 166.59-2.69 166.59-2.56L166.59-2.56Q166.59-2.37 166.6-2.23 166.61-2.1 166.61-1.98L166.61-1.98Q166.61-1.78 166.43-1.65 166.24-1.51 165.61-1.34L165.61-1.34 159.24 0.88Q158.97 0.98 158.53 1.12 158.09 1.27 157.68 1.27L157.68 1.27Q157.31 1.27 157.07 1.06 156.82 0.85 156.82 0.37L156.82 0.37ZM210.72-27.44L209.21-19.87Q208.7-19.92 208.06-19.98 207.43-20.04 206.72-20.04L206.72-20.04Q205.65-20.04 204.54-19.86 203.42-19.68 202.47-19.14 201.52-18.6 200.84-17.66 200.15-16.72 199.96-15.23L199.96-15.23Q199.79-13.43 199.68-12.27 199.57-11.11 199.52-10.36 199.47-9.62 199.43-9.17 199.4-8.72 199.37-8.33L199.37-8.33Q199.37-8.23 199.34-7.79 199.3-7.35 199.23-6.76 199.15-6.18 199.09-5.49 199.03-4.81 198.96-4.22 198.88-3.64 198.85-3.2 198.81-2.76 198.81-2.66L198.81-2.66Q198.81-2.47 198.82-2.33 198.84-2.2 198.84-2.08L198.84-2.08Q198.84-1.88 198.65-1.75 198.47-1.61 197.83-1.44L197.83-1.44 191.36 0.88Q191.1 0.98 190.66 1.12 190.22 1.27 189.8 1.27L189.8 1.27Q189.46 1.27 189.2 1.1 188.95 0.93 188.95 0.51L188.95 0.51 191.05-23.68Q191.12-24.49 191.23-24.79 191.34-25.1 191.78-25.2L191.78-25.2Q194-25.63 196.37-26.09 198.74-26.54 200.96-27.25L200.96-27.25Q201.15-27.25 201.19-27.19 201.23-27.12 201.23-27L201.23-27Q201.23-26.95 201.22-26.86 201.2-26.76 201.14-26.42 201.08-26.07 200.97-25.38 200.86-24.68 200.67-23.44L200.67-23.44Q201.79-24.32 203.14-25.05 204.5-25.78 205.87-26.31 207.23-26.83 208.5-27.14 209.77-27.44 210.72-27.44L210.72-27.44ZM225.35-27.25L225.35-27.25Q227.67-27.25 229.56-26.38 231.45-25.51 232.8-24.13 234.16-22.75 234.89-21.04 235.62-19.34 235.62-17.63L235.62-17.63Q235.62-16.11 234.7-14.59 233.77-13.06 232.1-11.84 230.42-10.62 228.08-9.86 225.74-9.11 222.93-9.11L222.93-9.11Q221.46-9.11 219.85-9.4L219.85-9.4Q219.95-8.35 220.46-7.59 220.98-6.84 221.76-6.35 222.54-5.86 223.53-5.63 224.52-5.4 225.57-5.4L225.57-5.4Q226.74-5.4 227.82-5.6 228.91-5.81 229.91-6.15 230.91-6.49 231.84-6.91 232.77-7.32 233.6-7.74L233.6-7.74Q233.82-7.79 233.98-7.82 234.14-7.86 234.28-7.86L234.28-7.86Q234.28-7.86 234.27-7.47 234.26-7.08 234.26-6.37 234.26-5.66 234.25-4.66 234.23-3.66 234.21-2.44L234.21-2.44Q234.28-2.32 234.31-2.2 234.33-2.08 234.33-2L234.33-2Q234.33-1.71 233.79-1.37 233.26-1.03 232.39-0.66 231.52-0.29 230.41 0.05 229.3 0.39 228.15 0.67 227.01 0.95 225.93 1.11 224.86 1.27 224.05 1.27L224.05 1.27Q221.42 1.27 218.94 0.35 216.46-0.56 214.54-2.27 212.63-3.98 211.48-6.42 210.33-8.86 210.33-11.91L210.33-11.91Q210.33-15.11 211.43-17.91 212.53-20.7 214.52-22.78 216.51-24.85 219.27-26.05 222.03-27.25 225.35-27.25ZM225.05-20.75L225.05-20.75Q224.05-20.75 223.21-20.32 222.37-19.9 221.67-19.1 220.98-18.31 220.46-17.2 219.95-16.09 219.63-14.75L219.63-14.75Q222.15-15.19 223.81-15.67 225.47-16.16 226.47-16.66 227.47-17.16 227.89-17.66 228.3-18.16 228.3-18.63L228.3-18.63Q228.3-19.07 227.97-19.46 227.64-19.85 227.15-20.14 226.66-20.43 226.09-20.59 225.52-20.75 225.05-20.75ZM266.12-27.66L263.6-4.91Q263.58-4.81 263.58-4.72 263.58-4.64 263.58-4.57L263.58-4.57Q263.58-3.96 263.77-3.55 263.97-3.15 264.2-2.89 264.43-2.64 264.63-2.48 264.82-2.32 264.82-2.2L264.82-2.2Q264.82-1.86 264.09-1.56L264.09-1.56 257.52 1.25Q257.5 1.27 257.35 1.27L257.35 1.27Q257.16 1.27 256.96 0.93 256.76 0.59 256.58 0.06 256.4-0.46 256.24-1.06 256.08-1.66 255.96-2.17L255.96-2.17Q254.42-0.39 252.64 0.44 250.86 1.27 249.1 1.27L249.1 1.27Q247.05 1.27 245.09 0.37 243.14-0.54 241.63-2.21 240.11-3.88 239.2-6.25 238.28-8.62 238.28-11.57L238.28-11.57Q238.28-15.06 239.3-17.94 240.31-20.83 242.04-22.9 243.78-24.98 246.08-26.11 248.39-27.25 250.98-27.25L250.98-27.25Q252.81-27.25 254.45-26.5 256.08-25.76 257.55-24.58L257.55-24.58Q257.69-25.32 257.72-25.76 257.74-26.2 257.83-26.44 257.91-26.68 258.16-26.77 258.4-26.86 258.96-26.9L258.96-26.9Q260.72-27.15 262.47-27.36 264.21-27.56 266.12-27.66L266.12-27.66ZM255.28-6.88L256.3-14.11Q256.54-15.5 256.63-16.74 256.72-17.97 256.76-18.99L256.76-18.99Q256.37-19.29 255.92-19.6 255.47-19.92 254.95-20.2 254.42-20.48 253.85-20.65 253.27-20.83 252.64-20.83L252.64-20.83Q251.32-20.83 250.43-19.97 249.54-19.12 248.99-17.87 248.44-16.63 248.21-15.23 247.98-13.84 247.98-12.77L247.98-12.77Q247.98-8.91 248.99-7.12 250-5.32 251.81-5.32L251.81-5.32Q252.54-5.32 253.44-5.74 254.35-6.15 255.28-6.88L255.28-6.88ZM287.11-8.33L287.62-13.89Q287.69-14.67 287.78-15.53 287.87-16.38 287.99-17.31L287.99-17.31Q287.43-18.77 286.4-19.69 285.38-20.61 283.84-20.61L283.84-20.61Q282.32-20.61 281.27-19.74 280.22-18.87 279.59-17.6 278.95-16.33 278.67-14.93 278.39-13.53 278.39-12.45L278.39-12.45Q278.39-11.13 278.55-9.84 278.71-8.54 279.06-7.5 279.42-6.45 280-5.8 280.59-5.15 281.47-5.15L281.47-5.15Q283.62-5.22 284.96-6.13 286.3-7.03 287.11-8.33L287.11-8.33ZM299.29-36.84L296.14-2.47Q296.14-2.42 296.13-2.36 296.12-2.29 296.12-2.25L296.12-2.25Q296.12-2.12 296.13-2.05 296.14-1.98 296.14-1.9L296.14-1.9Q296.14-1.68 295.98-1.55 295.82-1.42 295.17-1.25L295.17-1.25 288.62 0.88Q288.35 0.98 287.91 1.12 287.48 1.27 287.06 1.27L287.06 1.27Q286.72 1.27 286.46 1.1 286.21 0.93 286.21 0.46L286.21 0.46Q286.21 0.02 286.22-0.24 286.23-0.51 286.24-0.74 286.25-0.98 286.29-1.25 286.33-1.51 286.38-1.95L286.38-1.95Q284.55-0.49 282.6 0.39 280.66 1.27 278.52 1.27L278.52 1.27Q276.17 1.27 274.35 0.16 272.53-0.95 271.29-2.82 270.04-4.69 269.4-7.09 268.75-9.5 268.75-12.11L268.75-12.11Q268.75-15.5 269.86-18.3 270.97-21.09 272.88-23.08 274.78-25.07 277.32-26.16 279.86-27.25 282.71-27.25L282.71-27.25Q284.25-27.25 285.66-26.44 287.06-25.63 288.31-24.37L288.31-24.37Q288.38-25.56 288.48-26.97 288.57-28.37 288.67-29.82 288.77-31.27 288.87-32.69 288.96-34.11 289.04-35.28L289.04-35.28Q289.04-35.5 289.2-35.63 289.35-35.77 290.01-35.94L290.01-35.94 296.87-37.57Q297.14-37.62 297.58-37.79 298.02-37.96 298.44-37.96L298.44-37.96Q298.75-37.96 299.04-37.82 299.32-37.67 299.32-37.26L299.32-37.26Q299.32-37.21 299.3-37.05 299.29-36.89 299.29-36.84L299.29-36.84ZM312.47-16.5L312.47-16.5Q312.47-19.19 313.12-21.67 313.76-24.15 314.96-26.29 316.16-28.44 317.85-30.2 319.55-31.96 321.65-33.22 323.75-34.47 326.2-35.16 328.66-35.84 331.37-35.84L331.37-35.84Q333.51-35.84 335.14-35.56 336.76-35.28 337.97-34.85 339.18-34.42 340-33.91 340.81-33.4 341.35-32.93L341.35-32.93Q341.33-32.93 341.33-32.76L341.33-32.76Q341.33-32.4 341.39-31.42 341.45-30.44 341.53-29.25 341.62-28.05 341.68-26.82 341.74-25.59 341.74-24.68L341.74-24.68Q341.74-24.54 341.64-24.35 341.55-24.17 341.16-24.17L341.16-24.17Q340.94-24.17 340.62-24.24L340.62-24.24Q340.11-24.39 339.33-24.91 338.54-25.44 337.51-26.01 336.47-26.59 335.19-27.04 333.91-27.49 332.39-27.49L332.39-27.49Q330.39-27.49 328.75-26.7 327.12-25.9 325.97-24.51 324.82-23.12 324.19-21.2 323.55-19.29 323.55-17.02L323.55-17.02Q323.55-15.01 323.99-13.2 324.43-11.38 325.32-10.01 326.22-8.64 327.55-7.82 328.88-7.01 330.63-7.01L330.63-7.01Q332.03-7.01 333.1-7.1 334.17-7.2 335.1-7.42 336.03-7.64 336.92-8.01 337.81-8.37 338.84-8.94L338.84-8.94Q338.89-8.96 339.08-8.96L339.08-8.96Q339.25-8.96 339.31-8.83 339.37-8.69 339.37-8.28L339.37-8.28 339.37-5.35Q339.37-4.54 339.36-3.77 339.35-3 339.34-2.39 339.33-1.78 339.31-1.4 339.3-1.03 339.28-1.03L339.28-1.03Q338.15-0.32 336.87 0.13 335.59 0.59 334.24 0.84 332.88 1.1 331.51 1.18 330.15 1.27 328.88 1.27L328.88 1.27Q325.43 1.27 322.43-0.04 319.43-1.34 317.22-3.69 315.01-6.03 313.74-9.3 312.47-12.57 312.47-16.5ZM356.34 1.27L356.34 1.27Q352.9 1.27 350.3 0.15 347.7-0.98 345.94-2.84 344.18-4.71 343.3-7.14 342.42-9.57 342.42-12.18L342.42-12.18Q342.42-14.79 343.28-17.15 344.13-19.51 345.67-21.37 347.21-23.24 349.36-24.5 351.51-25.76 354.09-26.2L354.09-26.2Q354.48-26.22 354.48-26.37L354.48-26.37Q354.48-26.64 354.42-26.87 354.36-27.1 354.36-27.27L354.36-27.27Q354.36-27.54 354.46-27.64 354.56-27.73 354.68-27.73L354.68-27.73Q359.34-27.73 362.61-26.67 365.89-25.61 367.94-23.78 369.99-21.95 370.91-19.46 371.84-16.97 371.84-14.11L371.84-14.11Q371.84-10.47 370.62-7.62 369.4-4.76 367.29-2.78 365.18-0.81 362.36 0.23 359.54 1.27 356.34 1.27ZM351.82-12.45L351.82-12.45Q351.82-11.13 352.1-9.84 352.38-8.54 353.03-7.5 353.68-6.45 354.73-5.8 355.78-5.15 357.34-5.15L357.34-5.15Q358.46-5.2 359.31-5.65 360.15-6.1 360.76-6.82 361.37-7.54 361.77-8.45 362.17-9.35 362.41-10.31 362.64-11.28 362.74-12.21 362.83-13.13 362.83-13.89L362.83-13.89Q362.83-15.16 362.46-16.38 362.08-17.6 361.34-18.53 360.61-19.46 359.53-20.03 358.44-20.61 357.02-20.61L357.02-20.61Q355.56-20.61 354.56-19.74 353.56-18.87 352.96-17.6 352.36-16.33 352.09-14.93 351.82-13.53 351.82-12.45ZM403.07-27L400.77-3.03Q400.7-2.22 400.58-1.92 400.45-1.61 400.04-1.51L400.04-1.51Q397.96-0.93 395.7-0.33 393.45 0.27 391.32 1.25L391.32 1.25Q391.25 1.27 391.1 1.27L391.1 1.27Q390.91 1.27 390.87 1.17 390.83 1.07 390.83 0.95L390.83 0.95Q390.83 0.9 390.85 0.78 390.86 0.66 390.91 0.33 390.96 0 391.04-0.59 391.13-1.17 391.27-2.15L391.27-2.15Q388.54-0.37 386.43 0.45 384.32 1.27 382.68 1.27L382.68 1.27Q378.6 1.27 376.74-0.7 374.87-2.66 374.87-6.57L374.87-6.57Q374.87-7.28 374.89-8.02 374.92-8.76 375.04-9.55L375.04-9.55Q375.31-12.43 375.5-14.49 375.7-16.55 375.82-17.99 375.94-19.43 376.03-20.35 376.11-21.26 376.17-21.88 376.23-22.49 376.27-22.89 376.31-23.29 376.36-23.68L376.36-23.68Q376.45-24.46 376.54-24.78 376.63-25.1 377.09-25.2L377.09-25.2Q378.24-25.42 379.27-25.6 380.31-25.78 381.32-25.99 382.34-26.2 383.39-26.44 384.44-26.68 385.61-27.03L385.61-27.03Q385.66-27.03 385.71-27.04 385.76-27.05 385.8-27.05L385.8-27.05Q386.1-27.05 386.1-26.86L386.1-26.86 386.1-26.81Q386-25.98 385.93-25.24 385.85-24.51 385.78-23.74 385.71-22.97 385.62-22.09 385.54-21.22 385.41-20.06 385.29-18.9 385.12-17.38 384.95-15.87 384.71-13.87L384.71-13.87Q384.56-12.4 384.41-10.95 384.27-9.5 384.27-8.25L384.27-8.25Q384.27-7.57 384.36-6.99 384.46-6.42 384.72-6.02 384.97-5.62 385.39-5.4 385.8-5.18 386.46-5.18L386.46-5.18Q386.98-5.18 387.86-5.41 388.73-5.64 389.61-6.21 390.49-6.79 391.16-7.73 391.84-8.67 391.93-10.11L391.93-10.11Q392.1-12.52 392.24-14.15 392.37-15.77 392.47-16.88 392.57-17.99 392.64-18.75 392.71-19.51 392.78-20.2 392.84-20.9 392.88-21.69 392.93-22.49 392.98-23.68L392.98-23.68Q393.06-24.49 393.17-24.79 393.28-25.1 393.72-25.2L393.72-25.2Q395.94-25.63 398.26-26.09 400.58-26.54 402.8-27.25L402.8-27.25Q402.99-27.25 403.03-27.19 403.07-27.12 403.07-27L403.07-27ZM432.41-0.78L426.48 0.88Q426.21 0.95 425.77 1.11 425.33 1.27 424.91 1.27L424.91 1.27Q424.57 1.27 424.32 1.1 424.06 0.93 424.06 0.51L424.06 0.51 424.06 0.37Q424.21-0.95 424.3-1.87 424.4-2.78 424.49-3.53 424.57-4.27 424.63-5.02 424.69-5.76 424.79-6.75 424.89-7.74 425.02-9.09 425.16-10.45 425.35-12.48L425.35-12.48Q425.48-13.72 425.57-15.01 425.67-16.31 425.67-17.41L425.67-17.41Q425.67-18.14 425.56-18.76 425.45-19.38 425.17-19.84 424.89-20.29 424.4-20.53 423.91-20.78 423.16-20.78L423.16-20.78Q422.59-20.78 421.61-20.53 420.62-20.29 419.64-19.73 418.66-19.17 417.91-18.25 417.15-17.33 417.05-15.99L417.05-15.99Q416.91-14.18 416.78-12.9 416.66-11.62 416.56-10.73 416.47-9.84 416.41-9.28 416.34-8.72 416.32-8.33L416.32-8.33Q416.3-8.23 416.25-7.79 416.2-7.35 416.14-6.74 416.08-6.13 416.01-5.44 415.95-4.76 415.89-4.15 415.83-3.54 415.8-3.1 415.76-2.66 415.76-2.56L415.76-2.56Q415.76-2.37 415.77-2.23 415.78-2.1 415.78-1.98L415.78-1.98Q415.78-1.78 415.6-1.65 415.42-1.51 414.78-1.34L414.78-1.34 408.31 0.88Q408.04 0.98 407.6 1.12 407.16 1.27 406.75 1.27L406.75 1.27Q406.41 1.27 406.15 1.1 405.9 0.93 405.9 0.51L405.9 0.51 408.12-24.44Q408.19-25.24 408.3-25.55 408.41-25.85 408.85-25.95L408.85-25.95Q411.07-26.39 413.41-26.84 415.76-27.29 417.98-28L417.98-28Q418.18-28 418.21-27.94 418.25-27.88 418.25-27.76L418.25-27.76Q418.25-27.71 418.24-27.61 418.22-27.51 418.16-27.17 418.1-26.83 417.99-26.14 417.88-25.44 417.69-24.19L417.69-24.19Q419.37-25.17 420.85-25.77 422.33-26.37 423.63-26.7 424.94-27.03 426.09-27.14 427.23-27.25 428.23-27.25L428.23-27.25Q431.68-27.25 433.24-25.16 434.8-23.07 434.8-18.9L434.8-18.9Q434.8-18.31 434.78-17.69 434.75-17.07 434.68-16.41L434.68-16.41 433.56-5.91Q433.43-4.88 433.41-4.02 433.39-3.15 433.39-2L433.39-2Q433.39-1.81 433.4-1.67 433.41-1.54 433.41-1.44L433.41-1.44Q433.41-1.22 433.23-1.1 433.04-0.98 432.41-0.78L432.41-0.78ZM456.19-18.82L451.64-18.82Q451.3-16.26 451-13.71 450.69-11.16 450.62-8.94L450.62-8.94Q450.62-7.98 450.77-7.35 450.91-6.71 451.19-6.35 451.47-5.98 451.86-5.82 452.25-5.66 452.74-5.66L452.74-5.66Q453.52-5.66 454.45-5.9 455.38-6.13 456.31-6.49L456.31-6.49Q456.6-6.62 456.81-6.68 457.02-6.74 457.16-6.74L457.16-6.74Q457.41-6.74 457.49-6.52 457.58-6.3 457.66-5.75 457.75-5.2 457.92-4.27 458.09-3.34 458.48-1.93L458.48-1.93Q458.5-1.81 458.52-1.72 458.53-1.64 458.53-1.56L458.53-1.56Q458.53-1.22 458.27-1.07 458.02-0.93 457.43-0.73L457.43-0.73Q456.43-0.39 455.32-0.04 454.21 0.32 453.12 0.61 452.04 0.9 451.03 1.09 450.03 1.27 449.28 1.27L449.28 1.27Q445.2 1.27 443.33-0.76 441.46-2.78 441.46-6.93L441.46-6.93Q441.46-7.64 441.51-8.39 441.56-9.13 441.63-9.94L441.63-9.94Q441.88-12.38 442.06-14.56 442.25-16.75 442.44-18.75L442.44-18.75 439.88-18.75Q438.56-18.75 437.97-18.86 437.39-18.97 437.39-19.31L437.39-19.31Q437.39-19.41 437.63-19.84 437.88-20.26 438.25-20.86 438.63-21.46 439.07-22.14 439.51-22.83 439.91-23.43 440.32-24.02 440.61-24.46 440.9-24.9 440.98-25L440.98-25 442.71-25Q442.93-26.86 443.06-28.11 443.2-29.37 443.28-30.2 443.37-31.03 443.44-31.48 443.51-31.93 443.6-32.15 443.69-32.37 443.82-32.43 443.95-32.5 444.17-32.54L444.17-32.54Q445.27-32.76 446.3-32.95 447.32-33.13 448.35-33.33 449.37-33.52 450.44-33.78 451.5-34.03 452.65-34.38L452.65-34.38Q452.72-34.38 452.74-34.39 452.77-34.4 452.84-34.4L452.84-34.4Q453.13-34.4 453.13-34.2L453.13-34.2 453.13-34.16Q453.01-32.81 452.76-30.42 452.5-28.03 452.18-25L452.18-25 458.72-25Q458.92-25 459.1-24.87 459.29-24.73 459.29-24.41L459.29-24.41Q459.29-24.29 458.99-23.54 458.7-22.78 458.16-21.56L458.16-21.56 457.28-19.58Q457.11-19.21 456.93-19.04 456.75-18.87 456.19-18.82L456.19-18.82ZM496.56-33.89L504.18-35.94Q504.3-35.96 504.41-35.97 504.52-35.99 504.62-35.99L504.62-35.99Q505.06-35.99 505.33-35.71 505.59-35.42 505.69-34.72L505.69-34.72Q505.74-34.28 505.85-33.48 505.96-32.69 506.1-31.73 506.23-30.76 506.39-29.74 506.55-28.71 506.67-27.84 506.79-26.98 506.89-26.35 506.99-25.73 507.01-25.56L507.01-25.56Q507.55-21.24 507.96-18.63 508.38-16.02 508.55-14.77L508.55-14.77 510.18-1.56 509.94-0.81Q509.89-0.63 509.31-0.39 508.72-0.15 507.89 0.13 507.06 0.42 506.08 0.68 505.11 0.95 504.28 1.17 503.45 1.39 502.87 1.53 502.3 1.66 502.27 1.66L502.27 1.66Q501.69 1.66 501.35 0.81 501-0.05 500.79-1.37 500.57-2.69 500.43-4.25 500.3-5.81 500.13-7.25L500.13-7.25Q499.98-8.45 499.86-9.67 499.74-10.89 499.59-12.16L499.59-12.16 498.64-19.29 489.58-2.71Q489.16-2.12 488.75-1.87 488.33-1.61 487.97-1.61L487.97-1.61Q487.43-1.61 487.13-1.93 486.82-2.25 486.7-2.71L486.7-2.71Q486.23-4.25 485.9-5.31 485.58-6.37 485.29-7.25 485.01-8.13 484.77-8.96 484.53-9.79 484.22-10.88 483.91-11.96 483.54-13.44 483.16-14.92 482.62-17.07L482.62-17.07 481.86-13.55 478.35 1.37Q478.28 1.66 477.74 1.66L477.74 1.66Q477.23 1.66 476.33 1.46 475.44 1.27 474.48 0.99 473.51 0.71 472.6 0.4 471.68 0.1 471.15-0.15L471.15-0.15Q471.02-0.2 470.84-0.38 470.66-0.56 470.66-0.95L470.66-0.95Q470.66-1.05 470.73-1.37 470.8-1.68 470.91-2.11 471.02-2.54 471.16-2.98 471.29-3.42 471.41-3.76L471.41-3.76Q471.73-4.59 471.99-5.71 472.25-6.84 472.46-7.98 472.68-9.13 472.87-10.18 473.05-11.23 473.22-11.94L473.22-11.94 476.22-25.95 477.13-29.91Q477.3-30.66 477.46-31.38 477.62-32.1 477.74-32.69 477.86-33.28 477.93-33.64 478.01-34.01 478.01-34.06L478.01-34.06 484.11-35.94Q484.45-35.94 484.71-35.88 484.96-35.82 485.04-35.47L485.04-35.47 489.9-19.85 496.56-33.89ZM528.05-27.25L528.05-27.25Q530.37-27.25 532.26-26.38 534.16-25.51 535.51-24.13 536.87-22.75 537.6-21.04 538.33-19.34 538.33-17.63L538.33-17.63Q538.33-16.11 537.4-14.59 536.48-13.06 534.8-11.84 533.13-10.62 530.79-9.86 528.44-9.11 525.64-9.11L525.64-9.11Q524.17-9.11 522.56-9.4L522.56-9.4Q522.66-8.35 523.17-7.59 523.68-6.84 524.46-6.35 525.25-5.86 526.23-5.63 527.22-5.4 528.27-5.4L528.27-5.4Q529.44-5.4 530.53-5.6 531.62-5.81 532.62-6.15 533.62-6.49 534.55-6.91 535.47-7.32 536.31-7.74L536.31-7.74Q536.52-7.79 536.68-7.82 536.84-7.86 536.99-7.86L536.99-7.86Q536.99-7.86 536.98-7.47 536.96-7.08 536.96-6.37 536.96-5.66 536.95-4.66 536.94-3.66 536.92-2.44L536.92-2.44Q536.99-2.32 537.01-2.2 537.04-2.08 537.04-2L537.04-2Q537.04-1.71 536.5-1.37 535.96-1.03 535.1-0.66 534.23-0.29 533.12 0.05 532.01 0.39 530.86 0.67 529.71 0.95 528.64 1.11 527.56 1.27 526.76 1.27L526.76 1.27Q524.12 1.27 521.64 0.35 519.17-0.56 517.25-2.27 515.33-3.98 514.19-6.42 513.04-8.86 513.04-11.91L513.04-11.91Q513.04-15.11 514.14-17.91 515.24-20.7 517.23-22.78 519.22-24.85 521.97-26.05 524.73-27.25 528.05-27.25ZM527.76-20.75L527.76-20.75Q526.76-20.75 525.92-20.32 525.07-19.9 524.38-19.1 523.68-18.31 523.17-17.2 522.66-16.09 522.34-14.75L522.34-14.75Q524.85-15.19 526.52-15.67 528.18-16.16 529.18-16.66 530.18-17.16 530.59-17.66 531.01-18.16 531.01-18.63L531.01-18.63Q531.01-19.07 530.68-19.46 530.35-19.85 529.86-20.14 529.37-20.43 528.8-20.59 528.22-20.75 527.76-20.75ZM559.35-8.33L559.86-13.89Q559.94-14.67 560.02-15.53 560.11-16.38 560.23-17.31L560.23-17.31Q559.67-18.77 558.64-19.69 557.62-20.61 556.08-20.61L556.08-20.61Q554.56-20.61 553.51-19.74 552.46-18.87 551.83-17.6 551.2-16.33 550.91-14.93 550.63-13.53 550.63-12.45L550.63-12.45Q550.63-11.13 550.79-9.84 550.95-8.54 551.3-7.5 551.66-6.45 552.24-5.8 552.83-5.15 553.71-5.15L553.71-5.15Q555.86-5.22 557.2-6.13 558.54-7.03 559.35-8.33L559.35-8.33ZM571.53-36.84L568.38-2.47Q568.38-2.42 568.37-2.36 568.36-2.29 568.36-2.25L568.36-2.25Q568.36-2.12 568.37-2.05 568.38-1.98 568.38-1.9L568.38-1.9Q568.38-1.68 568.22-1.55 568.07-1.42 567.41-1.25L567.41-1.25 560.86 0.88Q560.59 0.98 560.16 1.12 559.72 1.27 559.3 1.27L559.3 1.27Q558.96 1.27 558.7 1.1 558.45 0.93 558.45 0.46L558.45 0.46Q558.45 0.02 558.46-0.24 558.47-0.51 558.48-0.74 558.49-0.98 558.53-1.25 558.57-1.51 558.62-1.95L558.62-1.95Q556.79-0.49 554.85 0.39 552.9 1.27 550.76 1.27L550.76 1.27Q548.41 1.27 546.59 0.16 544.77-0.95 543.53-2.82 542.28-4.69 541.64-7.09 540.99-9.5 540.99-12.11L540.99-12.11Q540.99-15.5 542.1-18.3 543.21-21.09 545.12-23.08 547.02-25.07 549.56-26.16 552.1-27.25 554.95-27.25L554.95-27.25Q556.49-27.25 557.9-26.44 559.3-25.63 560.55-24.37L560.55-24.37Q560.62-25.56 560.72-26.97 560.81-28.37 560.91-29.82 561.01-31.27 561.11-32.69 561.2-34.11 561.28-35.28L561.28-35.28Q561.28-35.5 561.44-35.63 561.6-35.77 562.25-35.94L562.25-35.94 569.12-37.57Q569.38-37.62 569.82-37.79 570.26-37.96 570.68-37.96L570.68-37.96Q570.99-37.96 571.28-37.82 571.56-37.67 571.56-37.26L571.56-37.26Q571.56-37.21 571.54-37.05 571.53-36.89 571.53-36.84L571.53-36.84ZM574.46-10.35L574.46-10.35Q574.78-13.7 575.09-16.97 575.41-20.24 575.66-23.68L575.66-23.68Q575.7-24.49 575.81-24.79 575.92-25.1 576.36-25.2L576.36-25.2Q578.44-25.61 580.71-26.06 582.98-26.51 585.1-27.22L585.1-27.22Q585.18-27.25 585.32-27.25L585.32-27.25Q585.59-27.25 585.59-27.05L585.59-27.05 583.39-3.27Q583.32-2.47 583.22-2.16 583.13-1.86 582.69-1.76L582.69-1.76Q580.61-1.12 578.49-0.34 576.36 0.44 574 1.25L574 1.25Q573.92 1.27 573.78 1.27L573.78 1.27Q573.51 1.27 573.51 1.03L573.51 1.03Q573.51 1 573.56 0.37 573.6-0.27 573.69-1.27 573.78-2.27 573.87-3.52 573.97-4.76 574.08-6.01 574.19-7.25 574.29-8.4 574.39-9.55 574.46-10.35ZM576.29-29.83L576.29-29.83Q576.36-30.88 576.4-31.45 576.44-32.01 576.46-32.29 576.49-32.57 576.49-32.64 576.49-32.71 576.5-32.75 576.51-32.79 576.52-32.9 576.53-33.01 576.56-33.36 576.58-33.72 576.63-34.4 576.68-35.08 576.78-36.28L576.78-36.28Q576.83-37.08 576.94-37.39 577.05-37.7 577.49-37.79L577.49-37.79Q579.56-38.21 581.83-38.66 584.1-39.11 586.23-39.82L586.23-39.82Q586.3-39.84 586.45-39.84L586.45-39.84Q586.52-39.7 586.64-39.65L586.64-39.65 586.72-39.6 586.18-32.91Q586.1-32.1 585.99-31.79 585.88-31.47 585.47-31.4L585.47-31.4Q583.39-31.01 581.27-30.54 579.15-30.08 576.78-29.61L576.78-29.61Q576.71-29.59 576.56-29.59L576.56-29.59Q576.29-29.59 576.29-29.83ZM616.2-27.66L613.69-4.91Q613.67-4.81 613.67-4.72 613.67-4.64 613.67-4.57L613.67-4.57Q613.67-3.96 613.86-3.55 614.06-3.15 614.29-2.89 614.52-2.64 614.72-2.48 614.91-2.32 614.91-2.2L614.91-2.2Q614.91-1.86 614.18-1.56L614.18-1.56 607.61 1.25Q607.59 1.27 607.44 1.27L607.44 1.27Q607.24 1.27 607.05 0.93 606.85 0.59 606.67 0.06 606.49-0.46 606.33-1.06 606.17-1.66 606.05-2.17L606.05-2.17Q604.51-0.39 602.73 0.44 600.95 1.27 599.19 1.27L599.19 1.27Q597.14 1.27 595.18 0.37 593.23-0.54 591.72-2.21 590.2-3.88 589.29-6.25 588.37-8.62 588.37-11.57L588.37-11.57Q588.37-15.06 589.39-17.94 590.4-20.83 592.13-22.9 593.87-24.98 596.17-26.11 598.48-27.25 601.07-27.25L601.07-27.25Q602.9-27.25 604.53-26.5 606.17-25.76 607.64-24.58L607.64-24.58Q607.78-25.32 607.81-25.76 607.83-26.2 607.92-26.44 608-26.68 608.25-26.77 608.49-26.86 609.05-26.9L609.05-26.9Q610.81-27.15 612.55-27.36 614.3-27.56 616.2-27.66L616.2-27.66ZM605.36-6.88L606.39-14.11Q606.63-15.5 606.72-16.74 606.81-17.97 606.85-18.99L606.85-18.99Q606.46-19.29 606.01-19.6 605.56-19.92 605.04-20.2 604.51-20.48 603.94-20.65 603.36-20.83 602.73-20.83L602.73-20.83Q601.41-20.83 600.52-19.97 599.63-19.12 599.08-17.87 598.53-16.63 598.3-15.23 598.07-13.84 598.07-12.77L598.07-12.77Q598.07-8.91 599.08-7.12 600.09-5.32 601.9-5.32L601.9-5.32Q602.63-5.32 603.53-5.74 604.44-6.15 605.36-6.88L605.36-6.88Z" opacity="1" transform="matrix(1,0,0,1,0,0)" fill="black" class="wordmark-text-0" id="SvgjsPath1127" stroke-width="5" stroke="black" stroke-linejoin="round"></path></svg></g></svg></g></svg></g></svg></g></svg></g></svg></g></svg></g></mask><g mask="url(#74cacfd7-d535-4b8a-be51-6cf66b1dc481)"><g><path d="M71.491 79.812v0c0-1.713 0.156-2.891 0.467-3.534 0.311-0.642 0.944-1.08 1.898-1.314v0l24.53-5.928c0.604-0.195 1.236-0.292 1.898-0.292v0c0.681 0 1.139 0.204 1.372 0.613 0.234 0.409 0.35 1.226 0.351 2.453v0l-0.847 11.214c-0.234 3.271-0.496 6.522-0.789 9.753-0.292 3.232-0.72 6.064-1.285 8.498v0l-1.284 10.104c-0.389 2.998-0.75 6.239-1.081 9.724-0.331 3.504-0.681 7.417-1.051 11.739v0l-3.358 35.16c-0.039 0.428-0.136 0.857-0.292 1.285-0.136 0.428-0.448 0.73-0.935 0.905v0c-0.331 0.156-1.1 0.467-2.307 0.934-1.207 0.487-2.648 1.032-4.322 1.636-1.655 0.623-3.436 1.275-5.344 1.956-1.888 0.701-3.689 1.334-5.402 1.898-1.713 0.565-3.232 1.042-4.556 1.431-1.343 0.37-2.249 0.555-2.715 0.555v0c-0.662 0-1.246-0.175-1.753-0.526-0.506-0.35-0.759-1.022-0.759-2.015v0c0-5.763 0.331-11.652 0.993-17.667 0.681-6.016 1.285-11.992 1.811-17.93v0c0.078-0.662 0.107-1.275 0.087-1.84-0.019-0.565 0.019-1.188 0.117-1.869v0h-26.107l-2.92 31.247c-0.039 0.428-0.117 0.837-0.233 1.226-0.117 0.409-0.438 0.73-0.964 0.964v0c-0.195 0.097-1.139 0.448-2.833 1.051-1.674 0.584-3.621 1.275-5.84 2.073-2.2 0.779-4.39 1.557-6.57 2.337-2.161 0.779-3.806 1.382-4.936 1.81v0c-0.584 0.253-1.285 0.506-2.102 0.759-0.837 0.253-1.655 0.38-2.453 0.38v0c-0.681 0-1.265-0.185-1.752-0.555-0.506-0.389-0.759-1.08-0.759-2.073v0c0-2.278 0.088-4.877 0.262-7.797 0.156-2.92 0.35-5.986 0.584-9.199 0.253-3.212 0.545-6.502 0.876-9.87 0.331-3.387 0.662-6.716 0.993-9.987v0l0.146-2.073c-3.855 0-6.648-0.107-8.381-0.322-1.733-0.214-2.599-0.769-2.599-1.664v0c0-0.623 0.35-1.431 1.052-2.424v0c0.954-1.343 2.064-2.949 3.329-4.818 1.265-1.869 2.472-3.718 3.621-5.549 1.168-1.83 2.219-3.475 3.154-4.935 0.915-1.441 1.518-2.375 1.81-2.803v0l1.635-17.2c0-0.097 0.049-0.808 0.146-2.132 0.097-1.324 0.214-2.901 0.351-4.731 0.156-1.83 0.311-3.718 0.467-5.665 0.175-1.966 0.331-3.631 0.467-4.993v0c0.097-1.674 0.224-2.842 0.38-3.505 0.175-0.662 0.74-1.11 1.694-1.343v0l24.237-5.928c0.623-0.195 1.265-0.292 1.928-0.292v0c0.662 0 1.11 0.204 1.343 0.613 0.234 0.409 0.35 1.226 0.35 2.453v0c-0.331 3.426-0.584 6.541-0.759 9.345-0.195 2.803-0.399 5.422-0.613 7.855-0.214 2.414-0.438 4.711-0.672 6.892-0.253 2.2-0.594 4.439-1.022 6.716v0l-1.402 11.039 25.873-0.263c0.428-6.327 0.905-11.7 1.431-16.12 0.526-4.419 0.857-7.914 0.993-10.483v0c0.136-2.433 0.234-4.166 0.292-5.198 0.039-1.051 0.058-1.645 0.059-1.781zM127.325 176.266v-0.292c0.234-3.465 0.467-6.814 0.701-10.046 0.234-3.232 0.448-6.366 0.642-9.403v0l2.57-33.67c0.292-2.57 0.526-4.906 0.701-7.008 0.195-2.122 0.35-4.195 0.467-6.22 0.117-2.005 0.234-4.049 0.35-6.133 0.136-2.064 0.273-4.351 0.409-6.862v0c-1.577-0.058-3.232-0.088-4.964-0.088-1.733 0-3.553 0-5.461 0v0h-13.754c-0.526 0-0.847-0.195-0.964-0.584-0.117-0.409-0.175-0.779-0.175-1.109v0-0.497l7.855-20.616-0.087-0.292c0-0.234 0.156-0.428 0.467-0.584 0.311-0.175 1.012-0.311 2.103-0.409v0c6.561-0.37 12.917-0.74 19.068-1.11 6.152-0.35 12.236-0.672 18.252-0.964 6.016-0.273 12.031-0.555 18.047-0.847 6.016-0.292 12.206-0.555 18.572-0.788v0c0.565 0 1.168 0.078 1.811 0.234 0.642 0.136 0.964 0.652 0.963 1.547v0c0 0.097-0.019 0.195-0.058 0.292-0.058 0.097-0.088 0.195-0.088 0.292v0c-0.759 1.947-1.46 3.796-2.102 5.549-0.642 1.772-1.265 3.504-1.869 5.198-0.623 1.713-1.256 3.456-1.898 5.227-0.642 1.752-1.343 3.602-2.103 5.548v0c-0.058 0.058-0.156 0.282-0.292 0.672-0.136 0.409-0.35 0.866-0.642 1.372-0.292 0.487-0.672 0.944-1.139 1.373-0.467 0.428-1.061 0.672-1.782 0.73v0c-0.234-0.058-0.467-0.088-0.7-0.088-0.253 0-0.516 0-0.789 0v0h-19.04c-0.234 2.433-0.458 5.003-0.671 7.71-0.214 2.706-0.467 5.344-0.76 7.913v0l-5.197 55.689c-0.058 0.428-0.146 0.857-0.263 1.285-0.117 0.428-0.438 0.73-0.964 0.905v0l-20.179 7.271c-0.506 0.195-1.188 0.438-2.044 0.73-0.857 0.273-1.694 0.409-2.511 0.409v0c-0.662 0-1.246-0.165-1.752-0.496-0.487-0.331-0.73-0.944-0.73-1.84zM190.898 125.513v0c0-5.237 0.633-10.269 1.898-15.098 1.265-4.828 3.056-9.325 5.373-13.491 2.336-4.186 5.159-7.992 8.468-11.418 3.29-3.426 6.979-6.366 11.068-8.819 4.088-2.433 8.527-4.322 13.316-5.665 4.77-1.324 9.792-1.986 15.068-1.986v0c4.186 0 7.855 0.273 11.009 0.818 3.173 0.545 5.938 1.236 8.294 2.073 2.336 0.837 4.302 1.752 5.899 2.745 1.596 0.993 2.92 1.947 3.971 2.862v0c-0.058 0-0.088 0.165-0.088 0.496v0c0 0.701 0.058 2.005 0.176 3.913 0.117 1.908 0.263 4.02 0.438 6.337 0.156 2.336 0.302 4.702 0.438 7.096 0.117 2.395 0.175 4.478 0.175 6.249v0c0 0.273-0.097 0.594-0.292 0.964-0.195 0.35-0.672 0.526-1.431 0.526v0c-0.428 0-0.954-0.068-1.577-0.205v0c-0.993-0.292-2.249-0.944-3.767-1.956-1.518-1.032-3.29-2.103-5.315-3.212-2.025-1.129-4.283-2.132-6.775-3.008-2.492-0.876-5.208-1.314-8.147-1.314v0c-3.913 0-7.456 0.769-10.629 2.307-3.193 1.557-5.899 3.689-8.119 6.395-2.239 2.706-3.981 5.928-5.227 9.666-1.226 3.718-1.84 7.787-1.839 12.206v0c0 3.913 0.428 7.631 1.284 11.155 0.857 3.543 2.151 6.648 3.884 9.316 1.733 2.667 3.894 4.799 6.483 6.395 2.589 1.577 5.597 2.365 9.024 2.365v0c2.706 0 5.101-0.088 7.183-0.262 2.103-0.195 4.059-0.506 5.87-0.935 1.791-0.428 3.563-1.003 5.315-1.723 1.733-0.701 3.592-1.606 5.577-2.716v0c0.097-0.039 0.341-0.058 0.73-0.058v0c0.331 0 0.555 0.127 0.672 0.38 0.117 0.273 0.175 0.808 0.175 1.606v0 8.556c0 1.577-0.01 3.115-0.029 4.614-0.039 1.499-0.068 2.842-0.088 4.03-0.019 1.188-0.039 2.151-0.058 2.891-0.019 0.72-0.058 1.08-0.117 1.08v0c-2.18 1.382-4.517 2.511-7.008 3.388-2.511 0.896-5.081 1.587-7.71 2.073-2.648 0.506-5.295 0.837-7.943 0.993-2.667 0.175-5.237 0.263-7.709 0.263v0c-6.697 0-12.966-1.275-18.806-3.826-5.86-2.531-10.941-6.084-15.244-10.658-4.302-4.556-7.69-10.016-10.162-16.383-2.472-6.366-3.709-13.375-3.708-21.025zM354.399 74.73l22.223-5.986c0.253-0.039 0.487-0.068 0.701-0.088 0.195-0.039 0.389-0.058 0.584-0.058v0c0.857 0 1.548 0.273 2.073 0.818 0.526 0.565 0.886 1.528 1.081 2.891v0c0.097 0.857 0.253 2.064 0.467 3.621 0.214 1.538 0.448 3.241 0.701 5.11 0.253 1.888 0.535 3.825 0.847 5.811 0.311 2.005 0.584 3.855 0.818 5.549 0.253 1.674 0.467 3.125 0.642 4.351 0.195 1.207 0.321 1.976 0.38 2.307v0c1.032 8.41 1.957 15.156 2.774 20.237 0.798 5.081 1.363 8.838 1.693 11.272v0l4.79 38.576-0.73 2.19c-0.078 0.35-0.691 0.759-1.84 1.226-1.149 0.467-2.531 0.973-4.147 1.519-1.616 0.565-3.368 1.1-5.256 1.606-1.908 0.526-3.67 1.003-5.286 1.431-1.616 0.428-2.979 0.779-4.088 1.051-1.129 0.253-1.713 0.38-1.752 0.38v0c-1.149 0-2.054-0.827-2.716-2.483-0.662-1.674-1.207-3.796-1.635-6.366-0.428-2.57-0.769-5.373-1.022-8.41-0.273-3.037-0.574-5.957-0.906-8.76v0c-0.292-2.336-0.555-4.692-0.788-7.067-0.234-2.375-0.496-4.799-0.788-7.272v0l-2.775-20.821-26.457 48.417c-0.798 1.149-1.606 1.966-2.423 2.453-0.798 0.506-1.557 0.759-2.278 0.76v0c-1.032 0-1.849-0.311-2.453-0.935-0.604-0.623-1.022-1.382-1.256-2.278v0c-0.896-2.998-1.665-5.529-2.307-7.592-0.642-2.064-1.236-3.952-1.781-5.665-0.545-1.713-1.061-3.378-1.548-4.994-0.467-1.616-1.003-3.485-1.606-5.607-0.584-2.103-1.246-4.594-1.986-7.475-0.74-2.881-1.626-6.415-2.657-10.601v0l-2.219 10.279-10.28 43.57c-0.136 0.565-0.73 0.847-1.781 0.847v0c-0.993 0-2.356-0.195-4.088-0.584-1.733-0.37-3.543-0.827-5.432-1.373-1.869-0.545-3.699-1.119-5.49-1.723-1.772-0.584-3.183-1.119-4.234-1.606v0c-0.234-0.097-0.526-0.321-0.876-0.672-0.37-0.35-0.555-0.905-0.555-1.664v0c0-0.195 0.078-0.604 0.234-1.227 0.136-0.604 0.311-1.324 0.525-2.161 0.214-0.837 0.448-1.684 0.701-2.54 0.273-0.857 0.526-1.616 0.759-2.278v0c0.623-1.616 1.178-3.514 1.665-5.694 0.506-2.2 0.973-4.41 1.402-6.629 0.428-2.239 0.818-4.38 1.168-6.425 0.37-2.044 0.72-3.757 1.051-5.139v0l8.761-40.912 2.628-11.564c0.331-1.46 0.652-2.891 0.963-4.293 0.311-1.402 0.584-2.677 0.818-3.825 0.234-1.149 0.428-2.073 0.584-2.774 0.136-0.72 0.204-1.129 0.205-1.227v0l17.813-5.49c0.681 0 1.265 0.058 1.752 0.175 0.506 0.117 0.827 0.516 0.964 1.198v0l14.192 45.613z" fill="#d5b263" fill-rule="nonzero" stroke="none" stroke-width="1" stroke-linecap="butt" stroke-linejoin="miter" stroke-miterlimit="10" stroke-dasharray="" stroke-dashoffset="0" font-family="none" font-weight="none" font-size="none" text-anchor="none" style="mix-blend-mode: normal" data-fill-palette-color="tertiary"></path></g></g><g transform="matrix(1,0,0,1,0,105.0930856507581)"><svg viewBox="0 0 395.52 37.013828698483785" height="37.013828698483785" width="395.52"><g><svg viewBox="0 0 395.52 37.013828698483785" height="37.013828698483785" width="395.52"><g><svg viewBox="0 0 395.52 37.013828698483785" height="37.013828698483785" width="395.52"><g><svg viewBox="0 0 395.52 37.013828698483785" height="37.013828698483785" width="395.52"><g id="textblocktransform"><svg viewBox="0 0 395.52 37.013828698483785" height="37.013828698483785" width="395.52" id="textblock"><g><svg viewBox="0 0 395.52 37.013828698483785" height="37.013828698483785" width="395.52"><g transform="matrix(1,0,0,1,0,0)"><svg width="395.52" viewBox="-1.02 -42.84 620.22 58.95" height="37.013828698483785" data-palette-color="#d5b263"><path d="M26-32.15L26-32.15Q26-33.03 26.16-33.36 26.32-33.69 26.81-33.81L26.81-33.81 35.21-35.84Q35.52-35.94 35.86-35.94L35.86-35.94Q36.21-35.94 36.33-35.73 36.45-35.52 36.45-34.89L36.45-34.89 36.16-31.05Q36.04-29.37 35.89-27.71 35.74-26.05 35.45-24.8L35.45-24.8 35.01-21.34Q34.81-19.8 34.64-18.01 34.47-16.21 34.28-13.99L34.28-13.99 33.13-1.95Q33.11-1.73 33.03-1.51 32.96-1.29 32.71-1.2L32.71-1.2Q32.54-1.12 31.92-0.88 31.3-0.63 30.44-0.32 29.59 0 28.61 0.35 27.64 0.71 26.76 1 25.88 1.29 25.2 1.49 24.51 1.68 24.27 1.68L24.27 1.68Q23.93 1.68 23.67 1.5 23.41 1.32 23.41 0.81L23.41 0.81Q23.41-2.15 23.75-5.24 24.1-8.33 24.37-11.38L24.37-11.38Q24.41-11.72 24.4-12.01 24.39-12.3 24.44-12.65L24.44-12.65 15.5-12.65 14.5-1.95Q14.48-1.73 14.42-1.53 14.36-1.32 14.09-1.2L14.09-1.2Q13.99-1.15 13.12-0.84 12.26-0.54 11.12-0.13 9.99 0.27 8.87 0.67 7.76 1.07 7.18 1.29L7.18 1.29Q6.88 1.42 6.46 1.55 6.03 1.68 5.62 1.68L5.62 1.68Q5.27 1.68 5.02 1.49 4.76 1.29 4.76 0.78L4.76 0.78Q4.76-0.39 4.85-1.89 4.93-3.39 5.05-5.04 5.18-6.69 5.35-8.42 5.52-10.16 5.69-11.84L5.69-11.84 5.74-12.55Q3.76-12.55 2.87-12.66 1.98-12.77 1.98-13.23L1.98-13.23Q1.98-13.55 2.34-14.06L2.34-14.06Q2.83-14.75 3.48-15.71 4.13-16.67 4.72-17.61 5.32-18.55 5.8-19.3 6.27-20.04 6.42-20.26L6.42-20.26 6.98-26.15Q6.98-26.2 7.03-26.88 7.08-27.56 7.15-28.5 7.23-29.44 7.31-30.44 7.4-31.45 7.47-32.15L7.47-32.15Q7.52-33.01 7.6-33.35 7.69-33.69 8.18-33.81L8.18-33.81 16.48-35.84Q16.8-35.94 17.14-35.94L17.14-35.94Q17.48-35.94 17.6-35.73 17.72-35.52 17.72-34.89L17.72-34.89Q17.55-33.13 17.46-31.69 17.36-30.25 17.25-29 17.14-27.76 17.02-26.64 16.89-25.51 16.67-24.34L16.67-24.34 16.19-20.56 25.05-20.65Q25.27-23.9 25.54-26.17 25.81-28.44 25.88-29.76L25.88-29.76Q25.95-31.01 25.98-31.54 26-32.08 26-32.15ZM39.45-10.35L39.45-10.35Q39.77-13.7 40.09-16.97 40.4-20.24 40.65-23.68L40.65-23.68Q40.7-24.49 40.81-24.79 40.92-25.1 41.35-25.2L41.35-25.2Q43.43-25.61 45.7-26.06 47.97-26.51 50.1-27.22L50.1-27.22Q50.17-27.25 50.31-27.25L50.31-27.25Q50.58-27.25 50.58-27.05L50.58-27.05 48.39-3.27Q48.31-2.47 48.22-2.16 48.12-1.86 47.68-1.76L47.68-1.76Q45.6-1.12 43.48-0.34 41.35 0.44 38.99 1.25L38.99 1.25Q38.91 1.27 38.77 1.27L38.77 1.27Q38.5 1.27 38.5 1.03L38.5 1.03Q38.5 1 38.55 0.37 38.6-0.27 38.68-1.27 38.77-2.27 38.86-3.52 38.96-4.76 39.07-6.01 39.18-7.25 39.28-8.4 39.38-9.55 39.45-10.35ZM41.28-29.83L41.28-29.83Q41.35-30.88 41.39-31.45 41.43-32.01 41.45-32.29 41.48-32.57 41.48-32.64 41.48-32.71 41.49-32.75 41.5-32.79 41.51-32.9 41.53-33.01 41.55-33.36 41.57-33.72 41.62-34.4 41.67-35.08 41.77-36.28L41.77-36.28Q41.82-37.08 41.93-37.39 42.04-37.7 42.48-37.79L42.48-37.79Q44.55-38.21 46.82-38.66 49.09-39.11 51.22-39.82L51.22-39.82Q51.29-39.84 51.44-39.84L51.44-39.84Q51.51-39.7 51.63-39.65L51.63-39.65 51.71-39.6 51.17-32.91Q51.1-32.1 50.99-31.79 50.88-31.47 50.46-31.4L50.46-31.4Q48.39-31.01 46.26-30.54 44.14-30.08 41.77-29.61L41.77-29.61Q41.7-29.59 41.55-29.59L41.55-29.59Q41.28-29.59 41.28-29.83ZM71.53-17.04L71.55-17.41Q71.31-17.97 70.88-18.55 70.45-19.14 69.89-19.63 69.33-20.12 68.67-20.42 68.01-20.73 67.28-20.73L67.28-20.73Q66.28-20.73 65.4-19.9 64.52-19.07 63.86-17.69 63.2-16.31 62.82-14.54 62.45-12.77 62.45-10.86L62.45-10.86Q62.45-9.69 62.65-8.65 62.86-7.62 63.3-6.84 63.74-6.05 64.44-5.59 65.13-5.13 66.11-5.13L66.11-5.13Q67.57-5.13 68.79-6.04 70.01-6.96 70.87-8.42L70.87-8.42Q70.89-8.94 70.94-9.64 70.99-10.35 71.06-11.36 71.14-12.38 71.25-13.76 71.36-15.14 71.53-17.04L71.53-17.04ZM82.15-25.71L79.63-2.66Q79.39-0.24 78.54 1.86 77.68 3.96 76.37 5.7 75.07 7.45 73.4 8.83 71.72 10.21 69.86 11.16 67.99 12.11 66.01 12.61 64.03 13.11 62.1 13.11L62.1 13.11Q61.08 13.11 60 13.04 58.93 12.96 57.91 12.76 56.88 12.55 55.95 12.17 55.02 11.79 54.29 11.21L54.29 11.21 54.29 11.18Q54.29 11.06 54.47 10.33 54.66 9.59 54.91 8.61 55.17 7.62 55.45 6.57 55.73 5.52 55.93 4.76L55.93 4.76Q56.03 4.42 56.12 4.3 56.22 4.17 56.34 4.17L56.34 4.17Q56.49 4.17 56.51 4.2L56.51 4.2Q57.22 4.66 57.84 4.97 58.47 5.27 59.16 5.46 59.86 5.64 60.69 5.71 61.52 5.79 62.62 5.79L62.62 5.79Q64.33 5.79 65.64 5.13 66.96 4.47 67.91 3.42 68.87 2.37 69.44 1.11 70.01-0.15 70.23-1.37L70.23-1.37Q68.48-0.2 66.67 0.54 64.86 1.27 63.03 1.27L63.03 1.27Q60.52 1.27 58.69 0.26 56.86-0.76 55.66-2.47 54.46-4.17 53.89-6.38 53.32-8.59 53.32-11.01L53.32-11.01Q53.32-12.92 53.67-14.86 54.02-16.8 54.72-18.6 55.41-20.41 56.44-21.98 57.47-23.56 58.81-24.73 60.15-25.9 61.79-26.57 63.42-27.25 65.35-27.25L65.35-27.25Q67.45-27.25 69.25-26.32 71.04-25.39 72.5-24.02L72.5-24.02Q72.55-24.46 72.58-24.72 72.6-24.98 72.7-25.12 72.8-25.27 73.03-25.34 73.26-25.42 73.7-25.51L73.7-25.51Q73.97-25.56 74.68-25.72 75.39-25.88 76.36-26.1 77.34-26.32 78.51-26.56 79.68-26.81 80.88-27.08L80.88-27.08Q81.17-27.15 81.42-27.15L81.42-27.15Q82.17-27.15 82.17-26.17L82.17-26.17Q82.17-26.05 82.17-25.94 82.17-25.83 82.15-25.71L82.15-25.71ZM85.37 0.37L88.15-35.5Q88.15-35.64 88.14-35.77 88.13-35.89 88.13-36.01L88.13-36.01Q88.13-36.23 88.3-36.39 88.47-36.55 89.13-36.72L89.13-36.72 95.99-38.35Q96.26-38.4 96.7-38.57 97.14-38.75 97.55-38.75L97.55-38.75Q98.41-38.75 98.41-37.96L98.41-37.96Q98.41-37.92 98.33-36.96 98.26-36.01 98.14-34.59 98.01-33.18 97.87-31.51 97.72-29.83 97.58-28.32 97.43-26.81 97.31-25.67 97.18-24.54 97.11-24.19L97.11-24.19Q98.26-24.83 99.5-25.39 100.75-25.95 102.01-26.37 103.26-26.78 104.52-27.01 105.78-27.25 106.95-27.25L106.95-27.25Q108.44-27.25 109.73-26.82 111.03-26.39 111.99-25.4 112.96-24.41 113.51-22.81 114.06-21.22 114.06-18.9L114.06-18.9Q114.06-18.31 114.03-17.69 114.01-17.07 113.93-16.41L113.93-16.41 112.88-6.42Q112.76-5.4 112.74-4.28 112.71-3.17 112.71-2L112.71-2Q112.71-1.81 112.72-1.67 112.74-1.54 112.74-1.44L112.74-1.44Q112.74-1.22 112.55-1.1 112.37-0.98 111.74-0.78L111.74-0.78 105.75 0.88Q105.49 0.95 105.05 1.11 104.61 1.27 104.19 1.27L104.19 1.27Q103.78 1.27 103.56 1.09 103.34 0.9 103.34 0.37L103.34 0.37Q103.51-1.46 103.62-2.59 103.73-3.71 103.79-4.38 103.85-5.05 103.9-5.41 103.95-5.76 103.97-6.04 104-6.32 104.05-6.68 104.09-7.03 104.16-7.71 104.22-8.4 104.33-9.52 104.44-10.64 104.61-12.48L104.61-12.48Q104.7-13.45 104.81-14.42 104.92-15.38 104.92-16.19L104.92-16.19Q104.92-17.21 104.81-18.05 104.7-18.9 104.42-19.49 104.14-20.09 103.65-20.43 103.17-20.78 102.41-20.78L102.41-20.78Q101.85-20.78 100.88-20.53 99.92-20.29 98.95-19.73 97.99-19.17 97.25-18.25 96.5-17.33 96.4-15.99L96.4-15.99Q96.21-14.11 96.1-12.92 95.99-11.72 95.92-10.94 95.84-10.16 95.81-9.69 95.77-9.23 95.74-8.84L95.74-8.84Q95.72-8.72 95.67-8.24 95.62-7.76 95.55-7.1 95.48-6.45 95.4-5.7 95.33-4.96 95.27-4.3 95.21-3.64 95.17-3.16 95.13-2.69 95.13-2.56L95.13-2.56Q95.13-2.37 95.15-2.23 95.16-2.1 95.16-1.98L95.16-1.98Q95.16-1.78 94.98-1.65 94.79-1.51 94.16-1.34L94.16-1.34 87.79 0.88Q87.52 0.98 87.08 1.12 86.64 1.27 86.22 1.27L86.22 1.27Q85.86 1.27 85.61 1.06 85.37 0.85 85.37 0.37L85.37 0.37ZM134.34 0.88L134.34 0.78Q134.46-1 134.58-2.66 134.7-4.32 134.8-5.88L134.8-5.88 135.68-17.41Q135.83-18.73 135.93-19.81 136.02-20.9 136.08-21.94 136.14-22.97 136.21-24.04 136.27-25.1 136.34-26.39L136.34-26.39Q135.53-26.42 134.64-26.42 133.75-26.42 132.78-26.42L132.78-26.42 128.06-26.42Q127.8-26.42 127.73-26.62 127.67-26.83 127.67-27L127.67-27 127.67-27.17 130.36-34.23 130.33-34.33Q130.33-34.45 130.49-34.53 130.65-34.62 131.21-34.67L131.21-34.67Q134.58-34.86 137.74-35.05 140.91-35.23 143.99-35.38 147.08-35.52 150.17-35.67 153.26-35.82 156.53-35.94L156.53-35.94Q156.82-35.94 157.15-35.86 157.48-35.79 157.48-35.33L157.48-35.33Q157.48-35.28 157.46-35.23 157.43-35.18 157.43-35.13L157.43-35.13Q157.04-34.13 156.71-33.23 156.38-32.32 156.07-31.45 155.75-30.57 155.42-29.66 155.09-28.76 154.7-27.76L154.7-27.76Q154.68-27.73 154.6-27.53 154.53-27.32 154.38-27.06 154.24-26.81 153.99-26.59 153.75-26.37 153.38-26.34L153.38-26.34Q153.26-26.37 153.14-26.37 153.01-26.37 152.87-26.37L152.87-26.37 146.35-26.37Q146.23-25.12 146.12-23.73 146.01-22.34 145.86-21.02L145.86-21.02 144.08-1.95Q144.05-1.73 143.99-1.51 143.93-1.29 143.66-1.2L143.66-1.2 136.76 1.29Q136.49 1.39 136.05 1.54 135.61 1.68 135.19 1.68L135.19 1.68Q134.85 1.68 134.59 1.51 134.34 1.34 134.34 0.88L134.34 0.88ZM156.82 0.37L159.6-35.5Q159.6-35.64 159.59-35.77 159.58-35.89 159.58-36.01L159.58-36.01Q159.58-36.23 159.75-36.39 159.92-36.55 160.58-36.72L160.58-36.72 167.44-38.35Q167.71-38.4 168.15-38.57 168.59-38.75 169-38.75L169-38.75Q169.86-38.75 169.86-37.96L169.86-37.96Q169.86-37.92 169.78-36.96 169.71-36.01 169.59-34.59 169.47-33.18 169.32-31.51 169.17-29.83 169.03-28.32 168.88-26.81 168.76-25.67 168.64-24.54 168.56-24.19L168.56-24.19Q169.71-24.83 170.96-25.39 172.2-25.95 173.46-26.37 174.72-26.78 175.97-27.01 177.23-27.25 178.4-27.25L178.4-27.25Q179.89-27.25 181.19-26.82 182.48-26.39 183.44-25.4 184.41-24.41 184.96-22.81 185.51-21.22 185.51-18.9L185.51-18.9Q185.51-18.31 185.48-17.69 185.46-17.07 185.39-16.41L185.39-16.41 184.34-6.42Q184.21-5.4 184.19-4.28 184.16-3.17 184.16-2L184.16-2Q184.16-1.81 184.18-1.67 184.19-1.54 184.19-1.44L184.19-1.44Q184.19-1.22 184.01-1.1 183.82-0.98 183.19-0.78L183.19-0.78 177.21 0.88Q176.94 0.95 176.5 1.11 176.06 1.27 175.64 1.27L175.64 1.27Q175.23 1.27 175.01 1.09 174.79 0.9 174.79 0.37L174.79 0.37Q174.96-1.46 175.07-2.59 175.18-3.71 175.24-4.38 175.3-5.05 175.35-5.41 175.4-5.76 175.42-6.04 175.45-6.32 175.5-6.68 175.55-7.03 175.61-7.71 175.67-8.4 175.78-9.52 175.89-10.64 176.06-12.48L176.06-12.48Q176.16-13.45 176.27-14.42 176.38-15.38 176.38-16.19L176.38-16.19Q176.38-17.21 176.27-18.05 176.16-18.9 175.88-19.49 175.6-20.09 175.11-20.43 174.62-20.78 173.86-20.78L173.86-20.78Q173.3-20.78 172.34-20.53 171.37-20.29 170.41-19.73 169.44-19.17 168.7-18.25 167.95-17.33 167.86-15.99L167.86-15.99Q167.66-14.11 167.55-12.92 167.44-11.72 167.37-10.94 167.29-10.16 167.26-9.69 167.22-9.23 167.2-8.84L167.2-8.84Q167.17-8.72 167.12-8.24 167.07-7.76 167-7.1 166.93-6.45 166.86-5.7 166.78-4.96 166.72-4.3 166.66-3.64 166.62-3.16 166.59-2.69 166.59-2.56L166.59-2.56Q166.59-2.37 166.6-2.23 166.61-2.1 166.61-1.98L166.61-1.98Q166.61-1.78 166.43-1.65 166.24-1.51 165.61-1.34L165.61-1.34 159.24 0.88Q158.97 0.98 158.53 1.12 158.09 1.27 157.68 1.27L157.68 1.27Q157.31 1.27 157.07 1.06 156.82 0.85 156.82 0.37L156.82 0.37ZM210.72-27.44L209.21-19.87Q208.7-19.92 208.06-19.98 207.43-20.04 206.72-20.04L206.72-20.04Q205.65-20.04 204.54-19.86 203.42-19.68 202.47-19.14 201.52-18.6 200.84-17.66 200.15-16.72 199.96-15.23L199.96-15.23Q199.79-13.43 199.68-12.27 199.57-11.11 199.52-10.36 199.47-9.62 199.43-9.17 199.4-8.72 199.37-8.33L199.37-8.33Q199.37-8.23 199.34-7.79 199.3-7.35 199.23-6.76 199.15-6.18 199.09-5.49 199.03-4.81 198.96-4.22 198.88-3.64 198.85-3.2 198.81-2.76 198.81-2.66L198.81-2.66Q198.81-2.47 198.82-2.33 198.84-2.2 198.84-2.08L198.84-2.08Q198.84-1.88 198.65-1.75 198.47-1.61 197.83-1.44L197.83-1.44 191.36 0.88Q191.1 0.98 190.66 1.12 190.22 1.27 189.8 1.27L189.8 1.27Q189.46 1.27 189.2 1.1 188.95 0.93 188.95 0.51L188.95 0.51 191.05-23.68Q191.12-24.49 191.23-24.79 191.34-25.1 191.78-25.2L191.78-25.2Q194-25.63 196.37-26.09 198.74-26.54 200.96-27.25L200.96-27.25Q201.15-27.25 201.19-27.19 201.23-27.12 201.23-27L201.23-27Q201.23-26.95 201.22-26.86 201.2-26.76 201.14-26.42 201.08-26.07 200.97-25.38 200.86-24.68 200.67-23.44L200.67-23.44Q201.79-24.32 203.14-25.05 204.5-25.78 205.87-26.31 207.23-26.83 208.5-27.14 209.77-27.44 210.72-27.44L210.72-27.44ZM225.35-27.25L225.35-27.25Q227.67-27.25 229.56-26.38 231.45-25.51 232.8-24.13 234.16-22.75 234.89-21.04 235.62-19.34 235.62-17.63L235.62-17.63Q235.62-16.11 234.7-14.59 233.77-13.06 232.1-11.84 230.42-10.62 228.08-9.86 225.74-9.11 222.93-9.11L222.93-9.11Q221.46-9.11 219.85-9.4L219.85-9.4Q219.95-8.35 220.46-7.59 220.98-6.84 221.76-6.35 222.54-5.86 223.53-5.63 224.52-5.4 225.57-5.4L225.57-5.4Q226.74-5.4 227.82-5.6 228.91-5.81 229.91-6.15 230.91-6.49 231.84-6.91 232.77-7.32 233.6-7.74L233.6-7.74Q233.82-7.79 233.98-7.82 234.14-7.86 234.28-7.86L234.28-7.86Q234.28-7.86 234.27-7.47 234.26-7.08 234.26-6.37 234.26-5.66 234.25-4.66 234.23-3.66 234.21-2.44L234.21-2.44Q234.28-2.32 234.31-2.2 234.33-2.08 234.33-2L234.33-2Q234.33-1.71 233.79-1.37 233.26-1.03 232.39-0.66 231.52-0.29 230.41 0.05 229.3 0.39 228.15 0.67 227.01 0.95 225.93 1.11 224.86 1.27 224.05 1.27L224.05 1.27Q221.42 1.27 218.94 0.35 216.46-0.56 214.54-2.27 212.63-3.98 211.48-6.42 210.33-8.86 210.33-11.91L210.33-11.91Q210.33-15.11 211.43-17.91 212.53-20.7 214.52-22.78 216.51-24.85 219.27-26.05 222.03-27.25 225.35-27.25ZM225.05-20.75L225.05-20.75Q224.05-20.75 223.21-20.32 222.37-19.9 221.67-19.1 220.98-18.31 220.46-17.2 219.95-16.09 219.63-14.75L219.63-14.75Q222.15-15.19 223.81-15.67 225.47-16.16 226.47-16.66 227.47-17.16 227.89-17.66 228.3-18.16 228.3-18.63L228.3-18.63Q228.3-19.07 227.97-19.46 227.64-19.85 227.15-20.14 226.66-20.43 226.09-20.59 225.52-20.75 225.05-20.75ZM266.12-27.66L263.6-4.91Q263.58-4.81 263.58-4.72 263.58-4.64 263.58-4.57L263.58-4.57Q263.58-3.96 263.77-3.55 263.97-3.15 264.2-2.89 264.43-2.64 264.63-2.48 264.82-2.32 264.82-2.2L264.82-2.2Q264.82-1.86 264.09-1.56L264.09-1.56 257.52 1.25Q257.5 1.27 257.35 1.27L257.35 1.27Q257.16 1.27 256.96 0.93 256.76 0.59 256.58 0.06 256.4-0.46 256.24-1.06 256.08-1.66 255.96-2.17L255.96-2.17Q254.42-0.39 252.64 0.44 250.86 1.27 249.1 1.27L249.1 1.27Q247.05 1.27 245.09 0.37 243.14-0.54 241.63-2.21 240.11-3.88 239.2-6.25 238.28-8.62 238.28-11.57L238.28-11.57Q238.28-15.06 239.3-17.94 240.31-20.83 242.04-22.9 243.78-24.98 246.08-26.11 248.39-27.25 250.98-27.25L250.98-27.25Q252.81-27.25 254.45-26.5 256.08-25.76 257.55-24.58L257.55-24.58Q257.69-25.32 257.72-25.76 257.74-26.2 257.83-26.44 257.91-26.68 258.16-26.77 258.4-26.86 258.96-26.9L258.96-26.9Q260.72-27.15 262.47-27.36 264.21-27.56 266.12-27.66L266.12-27.66ZM255.28-6.88L256.3-14.11Q256.54-15.5 256.63-16.74 256.72-17.97 256.76-18.99L256.76-18.99Q256.37-19.29 255.92-19.6 255.47-19.92 254.95-20.2 254.42-20.48 253.85-20.65 253.27-20.83 252.64-20.83L252.64-20.83Q251.32-20.83 250.43-19.97 249.54-19.12 248.99-17.87 248.44-16.63 248.21-15.23 247.98-13.84 247.98-12.77L247.98-12.77Q247.98-8.91 248.99-7.12 250-5.32 251.81-5.32L251.81-5.32Q252.54-5.32 253.44-5.74 254.35-6.15 255.28-6.88L255.28-6.88ZM287.11-8.33L287.62-13.89Q287.69-14.67 287.78-15.53 287.87-16.38 287.99-17.31L287.99-17.31Q287.43-18.77 286.4-19.69 285.38-20.61 283.84-20.61L283.84-20.61Q282.32-20.61 281.27-19.74 280.22-18.87 279.59-17.6 278.95-16.33 278.67-14.93 278.39-13.53 278.39-12.45L278.39-12.45Q278.39-11.13 278.55-9.84 278.71-8.54 279.06-7.5 279.42-6.45 280-5.8 280.59-5.15 281.47-5.15L281.47-5.15Q283.62-5.22 284.96-6.13 286.3-7.03 287.11-8.33L287.11-8.33ZM299.29-36.84L296.14-2.47Q296.14-2.42 296.13-2.36 296.12-2.29 296.12-2.25L296.12-2.25Q296.12-2.12 296.13-2.05 296.14-1.98 296.14-1.9L296.14-1.9Q296.14-1.68 295.98-1.55 295.82-1.42 295.17-1.25L295.17-1.25 288.62 0.88Q288.35 0.98 287.91 1.12 287.48 1.27 287.06 1.27L287.06 1.27Q286.72 1.27 286.46 1.1 286.21 0.93 286.21 0.46L286.21 0.46Q286.21 0.02 286.22-0.24 286.23-0.51 286.24-0.74 286.25-0.98 286.29-1.25 286.33-1.51 286.38-1.95L286.38-1.95Q284.55-0.49 282.6 0.39 280.66 1.27 278.52 1.27L278.52 1.27Q276.17 1.27 274.35 0.16 272.53-0.95 271.29-2.82 270.04-4.69 269.4-7.09 268.75-9.5 268.75-12.11L268.75-12.11Q268.75-15.5 269.86-18.3 270.97-21.09 272.88-23.08 274.78-25.07 277.32-26.16 279.86-27.25 282.71-27.25L282.71-27.25Q284.25-27.25 285.66-26.44 287.06-25.63 288.31-24.37L288.31-24.37Q288.38-25.56 288.48-26.97 288.57-28.37 288.67-29.82 288.77-31.27 288.87-32.69 288.96-34.11 289.04-35.28L289.04-35.28Q289.04-35.5 289.2-35.63 289.35-35.77 290.01-35.94L290.01-35.94 296.87-37.57Q297.14-37.62 297.58-37.79 298.02-37.96 298.44-37.96L298.44-37.96Q298.75-37.96 299.04-37.82 299.32-37.67 299.32-37.26L299.32-37.26Q299.32-37.21 299.3-37.05 299.29-36.89 299.29-36.84L299.29-36.84ZM312.47-16.5L312.47-16.5Q312.47-19.19 313.12-21.67 313.76-24.15 314.96-26.29 316.16-28.44 317.85-30.2 319.55-31.96 321.65-33.22 323.75-34.47 326.2-35.16 328.66-35.84 331.37-35.84L331.37-35.84Q333.51-35.84 335.14-35.56 336.76-35.28 337.97-34.85 339.18-34.42 340-33.91 340.81-33.4 341.35-32.93L341.35-32.93Q341.33-32.93 341.33-32.76L341.33-32.76Q341.33-32.4 341.39-31.42 341.45-30.44 341.53-29.25 341.62-28.05 341.68-26.82 341.74-25.59 341.74-24.68L341.74-24.68Q341.74-24.54 341.64-24.35 341.55-24.17 341.16-24.17L341.16-24.17Q340.94-24.17 340.62-24.24L340.62-24.24Q340.11-24.39 339.33-24.91 338.54-25.44 337.51-26.01 336.47-26.59 335.19-27.04 333.91-27.49 332.39-27.49L332.39-27.49Q330.39-27.49 328.75-26.7 327.12-25.9 325.97-24.51 324.82-23.12 324.19-21.2 323.55-19.29 323.55-17.02L323.55-17.02Q323.55-15.01 323.99-13.2 324.43-11.38 325.32-10.01 326.22-8.64 327.55-7.82 328.88-7.01 330.63-7.01L330.63-7.01Q332.03-7.01 333.1-7.1 334.17-7.2 335.1-7.42 336.03-7.64 336.92-8.01 337.81-8.37 338.84-8.94L338.84-8.94Q338.89-8.96 339.08-8.96L339.08-8.96Q339.25-8.96 339.31-8.83 339.37-8.69 339.37-8.28L339.37-8.28 339.37-5.35Q339.37-4.54 339.36-3.77 339.35-3 339.34-2.39 339.33-1.78 339.31-1.4 339.3-1.03 339.28-1.03L339.28-1.03Q338.15-0.32 336.87 0.13 335.59 0.59 334.24 0.84 332.88 1.1 331.51 1.18 330.15 1.27 328.88 1.27L328.88 1.27Q325.43 1.27 322.43-0.04 319.43-1.34 317.22-3.69 315.01-6.03 313.74-9.3 312.47-12.57 312.47-16.5ZM356.34 1.27L356.34 1.27Q352.9 1.27 350.3 0.15 347.7-0.98 345.94-2.84 344.18-4.71 343.3-7.14 342.42-9.57 342.42-12.18L342.42-12.18Q342.42-14.79 343.28-17.15 344.13-19.51 345.67-21.37 347.21-23.24 349.36-24.5 351.51-25.76 354.09-26.2L354.09-26.2Q354.48-26.22 354.48-26.37L354.48-26.37Q354.48-26.64 354.42-26.87 354.36-27.1 354.36-27.27L354.36-27.27Q354.36-27.54 354.46-27.64 354.56-27.73 354.68-27.73L354.68-27.73Q359.34-27.73 362.61-26.67 365.89-25.61 367.94-23.78 369.99-21.95 370.91-19.46 371.84-16.97 371.84-14.11L371.84-14.11Q371.84-10.47 370.62-7.62 369.4-4.76 367.29-2.78 365.18-0.81 362.36 0.23 359.54 1.27 356.34 1.27ZM351.82-12.45L351.82-12.45Q351.82-11.13 352.1-9.84 352.38-8.54 353.03-7.5 353.68-6.45 354.73-5.8 355.78-5.15 357.34-5.15L357.34-5.15Q358.46-5.2 359.31-5.65 360.15-6.1 360.76-6.82 361.37-7.54 361.77-8.45 362.17-9.35 362.41-10.31 362.64-11.28 362.74-12.21 362.83-13.13 362.83-13.89L362.83-13.89Q362.83-15.16 362.46-16.38 362.08-17.6 361.34-18.53 360.61-19.46 359.53-20.03 358.44-20.61 357.02-20.61L357.02-20.61Q355.56-20.61 354.56-19.74 353.56-18.87 352.96-17.6 352.36-16.33 352.09-14.93 351.82-13.53 351.82-12.45ZM403.07-27L400.77-3.03Q400.7-2.22 400.58-1.92 400.45-1.61 400.04-1.51L400.04-1.51Q397.96-0.93 395.7-0.33 393.45 0.27 391.32 1.25L391.32 1.25Q391.25 1.27 391.1 1.27L391.1 1.27Q390.91 1.27 390.87 1.17 390.83 1.07 390.83 0.95L390.83 0.95Q390.83 0.9 390.85 0.78 390.86 0.66 390.91 0.33 390.96 0 391.04-0.59 391.13-1.17 391.27-2.15L391.27-2.15Q388.54-0.37 386.43 0.45 384.32 1.27 382.68 1.27L382.68 1.27Q378.6 1.27 376.74-0.7 374.87-2.66 374.87-6.57L374.87-6.57Q374.87-7.28 374.89-8.02 374.92-8.76 375.04-9.55L375.04-9.55Q375.31-12.43 375.5-14.49 375.7-16.55 375.82-17.99 375.94-19.43 376.03-20.35 376.11-21.26 376.17-21.88 376.23-22.49 376.27-22.89 376.31-23.29 376.36-23.68L376.36-23.68Q376.45-24.46 376.54-24.78 376.63-25.1 377.09-25.2L377.09-25.2Q378.24-25.42 379.27-25.6 380.31-25.78 381.32-25.99 382.34-26.2 383.39-26.44 384.44-26.68 385.61-27.03L385.61-27.03Q385.66-27.03 385.71-27.04 385.76-27.05 385.8-27.05L385.8-27.05Q386.1-27.05 386.1-26.86L386.1-26.86 386.1-26.81Q386-25.98 385.93-25.24 385.85-24.51 385.78-23.74 385.71-22.97 385.62-22.09 385.54-21.22 385.41-20.06 385.29-18.9 385.12-17.38 384.95-15.87 384.71-13.87L384.71-13.87Q384.56-12.4 384.41-10.95 384.27-9.5 384.27-8.25L384.27-8.25Q384.27-7.57 384.36-6.99 384.46-6.42 384.72-6.02 384.97-5.62 385.39-5.4 385.8-5.18 386.46-5.18L386.46-5.18Q386.98-5.18 387.86-5.41 388.73-5.64 389.61-6.21 390.49-6.79 391.16-7.73 391.84-8.67 391.93-10.11L391.93-10.11Q392.1-12.52 392.24-14.15 392.37-15.77 392.47-16.88 392.57-17.99 392.64-18.75 392.71-19.51 392.78-20.2 392.84-20.9 392.88-21.69 392.93-22.49 392.98-23.68L392.98-23.68Q393.06-24.49 393.17-24.79 393.28-25.1 393.72-25.2L393.72-25.2Q395.94-25.63 398.26-26.09 400.58-26.54 402.8-27.25L402.8-27.25Q402.99-27.25 403.03-27.19 403.07-27.12 403.07-27L403.07-27ZM432.41-0.78L426.48 0.88Q426.21 0.95 425.77 1.11 425.33 1.27 424.91 1.27L424.91 1.27Q424.57 1.27 424.32 1.1 424.06 0.93 424.06 0.51L424.06 0.51 424.06 0.37Q424.21-0.95 424.3-1.87 424.4-2.78 424.49-3.53 424.57-4.27 424.63-5.02 424.69-5.76 424.79-6.75 424.89-7.74 425.02-9.09 425.16-10.45 425.35-12.48L425.35-12.48Q425.48-13.72 425.57-15.01 425.67-16.31 425.67-17.41L425.67-17.41Q425.67-18.14 425.56-18.76 425.45-19.38 425.17-19.84 424.89-20.29 424.4-20.53 423.91-20.78 423.16-20.78L423.16-20.78Q422.59-20.78 421.61-20.53 420.62-20.29 419.64-19.73 418.66-19.17 417.91-18.25 417.15-17.33 417.05-15.99L417.05-15.99Q416.91-14.18 416.78-12.9 416.66-11.62 416.56-10.73 416.47-9.84 416.41-9.28 416.34-8.72 416.32-8.33L416.32-8.33Q416.3-8.23 416.25-7.79 416.2-7.35 416.14-6.74 416.08-6.13 416.01-5.44 415.95-4.76 415.89-4.15 415.83-3.54 415.8-3.1 415.76-2.66 415.76-2.56L415.76-2.56Q415.76-2.37 415.77-2.23 415.78-2.1 415.78-1.98L415.78-1.98Q415.78-1.78 415.6-1.65 415.42-1.51 414.78-1.34L414.78-1.34 408.31 0.88Q408.04 0.98 407.6 1.12 407.16 1.27 406.75 1.27L406.75 1.27Q406.41 1.27 406.15 1.1 405.9 0.93 405.9 0.51L405.9 0.51 408.12-24.44Q408.19-25.24 408.3-25.55 408.41-25.85 408.85-25.95L408.85-25.95Q411.07-26.39 413.41-26.84 415.76-27.29 417.98-28L417.98-28Q418.18-28 418.21-27.94 418.25-27.88 418.25-27.76L418.25-27.76Q418.25-27.71 418.24-27.61 418.22-27.51 418.16-27.17 418.1-26.83 417.99-26.14 417.88-25.44 417.69-24.19L417.69-24.19Q419.37-25.17 420.85-25.77 422.33-26.37 423.63-26.7 424.94-27.03 426.09-27.14 427.23-27.25 428.23-27.25L428.23-27.25Q431.68-27.25 433.24-25.16 434.8-23.07 434.8-18.9L434.8-18.9Q434.8-18.31 434.78-17.69 434.75-17.07 434.68-16.41L434.68-16.41 433.56-5.91Q433.43-4.88 433.41-4.02 433.39-3.15 433.39-2L433.39-2Q433.39-1.81 433.4-1.67 433.41-1.54 433.41-1.44L433.41-1.44Q433.41-1.22 433.23-1.1 433.04-0.98 432.41-0.78L432.41-0.78ZM456.19-18.82L451.64-18.82Q451.3-16.26 451-13.71 450.69-11.16 450.62-8.94L450.62-8.94Q450.62-7.98 450.77-7.35 450.91-6.71 451.19-6.35 451.47-5.98 451.86-5.82 452.25-5.66 452.74-5.66L452.74-5.66Q453.52-5.66 454.45-5.9 455.38-6.13 456.31-6.49L456.31-6.49Q456.6-6.62 456.81-6.68 457.02-6.74 457.16-6.74L457.16-6.74Q457.41-6.74 457.49-6.52 457.58-6.3 457.66-5.75 457.75-5.2 457.92-4.27 458.09-3.34 458.48-1.93L458.48-1.93Q458.5-1.81 458.52-1.72 458.53-1.64 458.53-1.56L458.53-1.56Q458.53-1.22 458.27-1.07 458.02-0.93 457.43-0.73L457.43-0.73Q456.43-0.39 455.32-0.04 454.21 0.32 453.12 0.61 452.04 0.9 451.03 1.09 450.03 1.27 449.28 1.27L449.28 1.27Q445.2 1.27 443.33-0.76 441.46-2.78 441.46-6.93L441.46-6.93Q441.46-7.64 441.51-8.39 441.56-9.13 441.63-9.94L441.63-9.94Q441.88-12.38 442.06-14.56 442.25-16.75 442.44-18.75L442.44-18.75 439.88-18.75Q438.56-18.75 437.97-18.86 437.39-18.97 437.39-19.31L437.39-19.31Q437.39-19.41 437.63-19.84 437.88-20.26 438.25-20.86 438.63-21.46 439.07-22.14 439.51-22.83 439.91-23.43 440.32-24.02 440.61-24.46 440.9-24.9 440.98-25L440.98-25 442.71-25Q442.93-26.86 443.06-28.11 443.2-29.37 443.28-30.2 443.37-31.03 443.44-31.48 443.51-31.93 443.6-32.15 443.69-32.37 443.82-32.43 443.95-32.5 444.17-32.54L444.17-32.54Q445.27-32.76 446.3-32.95 447.32-33.13 448.35-33.33 449.37-33.52 450.44-33.78 451.5-34.03 452.65-34.38L452.65-34.38Q452.72-34.38 452.74-34.39 452.77-34.4 452.84-34.4L452.84-34.4Q453.13-34.4 453.13-34.2L453.13-34.2 453.13-34.16Q453.01-32.81 452.76-30.42 452.5-28.03 452.18-25L452.18-25 458.72-25Q458.92-25 459.1-24.87 459.29-24.73 459.29-24.41L459.29-24.41Q459.29-24.29 458.99-23.54 458.7-22.78 458.16-21.56L458.16-21.56 457.28-19.58Q457.11-19.21 456.93-19.04 456.75-18.87 456.19-18.82L456.19-18.82ZM496.56-33.89L504.18-35.94Q504.3-35.96 504.41-35.97 504.52-35.99 504.62-35.99L504.62-35.99Q505.06-35.99 505.33-35.71 505.59-35.42 505.69-34.72L505.69-34.72Q505.74-34.28 505.85-33.48 505.96-32.69 506.1-31.73 506.23-30.76 506.39-29.74 506.55-28.71 506.67-27.84 506.79-26.98 506.89-26.35 506.99-25.73 507.01-25.56L507.01-25.56Q507.55-21.24 507.96-18.63 508.38-16.02 508.55-14.77L508.55-14.77 510.18-1.56 509.94-0.81Q509.89-0.63 509.31-0.39 508.72-0.15 507.89 0.13 507.06 0.42 506.08 0.68 505.11 0.95 504.28 1.17 503.45 1.39 502.87 1.53 502.3 1.66 502.27 1.66L502.27 1.66Q501.69 1.66 501.35 0.81 501-0.05 500.79-1.37 500.57-2.69 500.43-4.25 500.3-5.81 500.13-7.25L500.13-7.25Q499.98-8.45 499.86-9.67 499.74-10.89 499.59-12.16L499.59-12.16 498.64-19.29 489.58-2.71Q489.16-2.12 488.75-1.87 488.33-1.61 487.97-1.61L487.97-1.61Q487.43-1.61 487.13-1.93 486.82-2.25 486.7-2.71L486.7-2.71Q486.23-4.25 485.9-5.31 485.58-6.37 485.29-7.25 485.01-8.13 484.77-8.96 484.53-9.79 484.22-10.88 483.91-11.96 483.54-13.44 483.16-14.92 482.62-17.07L482.62-17.07 481.86-13.55 478.35 1.37Q478.28 1.66 477.74 1.66L477.74 1.66Q477.23 1.66 476.33 1.46 475.44 1.27 474.48 0.99 473.51 0.71 472.6 0.4 471.68 0.1 471.15-0.15L471.15-0.15Q471.02-0.2 470.84-0.38 470.66-0.56 470.66-0.95L470.66-0.95Q470.66-1.05 470.73-1.37 470.8-1.68 470.91-2.11 471.02-2.54 471.16-2.98 471.29-3.42 471.41-3.76L471.41-3.76Q471.73-4.59 471.99-5.71 472.25-6.84 472.46-7.98 472.68-9.13 472.87-10.18 473.05-11.23 473.22-11.94L473.22-11.94 476.22-25.95 477.13-29.91Q477.3-30.66 477.46-31.38 477.62-32.1 477.74-32.69 477.86-33.28 477.93-33.64 478.01-34.01 478.01-34.06L478.01-34.06 484.11-35.94Q484.45-35.94 484.71-35.88 484.96-35.82 485.04-35.47L485.04-35.47 489.9-19.85 496.56-33.89ZM528.05-27.25L528.05-27.25Q530.37-27.25 532.26-26.38 534.16-25.51 535.51-24.13 536.87-22.75 537.6-21.04 538.33-19.34 538.33-17.63L538.33-17.63Q538.33-16.11 537.4-14.59 536.48-13.06 534.8-11.84 533.13-10.62 530.79-9.86 528.44-9.11 525.64-9.11L525.64-9.11Q524.17-9.11 522.56-9.4L522.56-9.4Q522.66-8.35 523.17-7.59 523.68-6.84 524.46-6.35 525.25-5.86 526.23-5.63 527.22-5.4 528.27-5.4L528.27-5.4Q529.44-5.4 530.53-5.6 531.62-5.81 532.62-6.15 533.62-6.49 534.55-6.91 535.47-7.32 536.31-7.74L536.31-7.74Q536.52-7.79 536.68-7.82 536.84-7.86 536.99-7.86L536.99-7.86Q536.99-7.86 536.98-7.47 536.96-7.08 536.96-6.37 536.96-5.66 536.95-4.66 536.94-3.66 536.92-2.44L536.92-2.44Q536.99-2.32 537.01-2.2 537.04-2.08 537.04-2L537.04-2Q537.04-1.71 536.5-1.37 535.96-1.03 535.1-0.66 534.23-0.29 533.12 0.05 532.01 0.39 530.86 0.67 529.71 0.95 528.64 1.11 527.56 1.27 526.76 1.27L526.76 1.27Q524.12 1.27 521.64 0.35 519.17-0.56 517.25-2.27 515.33-3.98 514.19-6.42 513.04-8.86 513.04-11.91L513.04-11.91Q513.04-15.11 514.14-17.91 515.24-20.7 517.23-22.78 519.22-24.85 521.97-26.05 524.73-27.25 528.05-27.25ZM527.76-20.75L527.76-20.75Q526.76-20.75 525.92-20.32 525.07-19.9 524.38-19.1 523.68-18.31 523.17-17.2 522.66-16.09 522.34-14.75L522.34-14.75Q524.85-15.19 526.52-15.67 528.18-16.16 529.18-16.66 530.18-17.16 530.59-17.66 531.01-18.16 531.01-18.63L531.01-18.63Q531.01-19.07 530.68-19.46 530.35-19.85 529.86-20.14 529.37-20.43 528.8-20.59 528.22-20.75 527.76-20.75ZM559.35-8.33L559.86-13.89Q559.94-14.67 560.02-15.53 560.11-16.38 560.23-17.31L560.23-17.31Q559.67-18.77 558.64-19.69 557.62-20.61 556.08-20.61L556.08-20.61Q554.56-20.61 553.51-19.74 552.46-18.87 551.83-17.6 551.2-16.33 550.91-14.93 550.63-13.53 550.63-12.45L550.63-12.45Q550.63-11.13 550.79-9.84 550.95-8.54 551.3-7.5 551.66-6.45 552.24-5.8 552.83-5.15 553.71-5.15L553.71-5.15Q555.86-5.22 557.2-6.13 558.54-7.03 559.35-8.33L559.35-8.33ZM571.53-36.84L568.38-2.47Q568.38-2.42 568.37-2.36 568.36-2.29 568.36-2.25L568.36-2.25Q568.36-2.12 568.37-2.05 568.38-1.98 568.38-1.9L568.38-1.9Q568.38-1.68 568.22-1.55 568.07-1.42 567.41-1.25L567.41-1.25 560.86 0.88Q560.59 0.98 560.16 1.12 559.72 1.27 559.3 1.27L559.3 1.27Q558.96 1.27 558.7 1.1 558.45 0.93 558.45 0.46L558.45 0.46Q558.45 0.02 558.46-0.24 558.47-0.51 558.48-0.74 558.49-0.98 558.53-1.25 558.57-1.51 558.62-1.95L558.62-1.95Q556.79-0.49 554.85 0.39 552.9 1.27 550.76 1.27L550.76 1.27Q548.41 1.27 546.59 0.16 544.77-0.95 543.53-2.82 542.28-4.69 541.64-7.09 540.99-9.5 540.99-12.11L540.99-12.11Q540.99-15.5 542.1-18.3 543.21-21.09 545.12-23.08 547.02-25.07 549.56-26.16 552.1-27.25 554.95-27.25L554.95-27.25Q556.49-27.25 557.9-26.44 559.3-25.63 560.55-24.37L560.55-24.37Q560.62-25.56 560.72-26.97 560.81-28.37 560.91-29.82 561.01-31.27 561.11-32.69 561.2-34.11 561.28-35.28L561.28-35.28Q561.28-35.5 561.44-35.63 561.6-35.77 562.25-35.94L562.25-35.94 569.12-37.57Q569.38-37.62 569.82-37.79 570.26-37.96 570.68-37.96L570.68-37.96Q570.99-37.96 571.28-37.82 571.56-37.67 571.56-37.26L571.56-37.26Q571.56-37.21 571.54-37.05 571.53-36.89 571.53-36.84L571.53-36.84ZM574.46-10.35L574.46-10.35Q574.78-13.7 575.09-16.97 575.41-20.24 575.66-23.68L575.66-23.68Q575.7-24.49 575.81-24.79 575.92-25.1 576.36-25.2L576.36-25.2Q578.44-25.61 580.71-26.06 582.98-26.51 585.1-27.22L585.1-27.22Q585.18-27.25 585.32-27.25L585.32-27.25Q585.59-27.25 585.59-27.05L585.59-27.05 583.39-3.27Q583.32-2.47 583.22-2.16 583.13-1.86 582.69-1.76L582.69-1.76Q580.61-1.12 578.49-0.34 576.36 0.44 574 1.25L574 1.25Q573.92 1.27 573.78 1.27L573.78 1.27Q573.51 1.27 573.51 1.03L573.51 1.03Q573.51 1 573.56 0.37 573.6-0.27 573.69-1.27 573.78-2.27 573.87-3.52 573.97-4.76 574.08-6.01 574.19-7.25 574.29-8.4 574.39-9.55 574.46-10.35ZM576.29-29.83L576.29-29.83Q576.36-30.88 576.4-31.45 576.44-32.01 576.46-32.29 576.49-32.57 576.49-32.64 576.49-32.71 576.5-32.75 576.51-32.79 576.52-32.9 576.53-33.01 576.56-33.36 576.58-33.72 576.63-34.4 576.68-35.08 576.78-36.28L576.78-36.28Q576.83-37.08 576.94-37.39 577.05-37.7 577.49-37.79L577.49-37.79Q579.56-38.21 581.83-38.66 584.1-39.11 586.23-39.82L586.23-39.82Q586.3-39.84 586.45-39.84L586.45-39.84Q586.52-39.7 586.64-39.65L586.64-39.65 586.72-39.6 586.18-32.91Q586.1-32.1 585.99-31.79 585.88-31.47 585.47-31.4L585.47-31.4Q583.39-31.01 581.27-30.54 579.15-30.08 576.78-29.61L576.78-29.61Q576.71-29.59 576.56-29.59L576.56-29.59Q576.29-29.59 576.29-29.83ZM616.2-27.66L613.69-4.91Q613.67-4.81 613.67-4.72 613.67-4.64 613.67-4.57L613.67-4.57Q613.67-3.96 613.86-3.55 614.06-3.15 614.29-2.89 614.52-2.64 614.72-2.48 614.91-2.32 614.91-2.2L614.91-2.2Q614.91-1.86 614.18-1.56L614.18-1.56 607.61 1.25Q607.59 1.27 607.44 1.27L607.44 1.27Q607.24 1.27 607.05 0.93 606.85 0.59 606.67 0.06 606.49-0.46 606.33-1.06 606.17-1.66 606.05-2.17L606.05-2.17Q604.51-0.39 602.73 0.44 600.95 1.27 599.19 1.27L599.19 1.27Q597.14 1.27 595.18 0.37 593.23-0.54 591.72-2.21 590.2-3.88 589.29-6.25 588.37-8.62 588.37-11.57L588.37-11.57Q588.37-15.06 589.39-17.94 590.4-20.83 592.13-22.9 593.87-24.98 596.17-26.11 598.48-27.25 601.07-27.25L601.07-27.25Q602.9-27.25 604.53-26.5 606.17-25.76 607.64-24.58L607.64-24.58Q607.78-25.32 607.81-25.76 607.83-26.2 607.92-26.44 608-26.68 608.25-26.77 608.49-26.86 609.05-26.9L609.05-26.9Q610.81-27.15 612.55-27.36 614.3-27.56 616.2-27.66L616.2-27.66ZM605.36-6.88L606.39-14.11Q606.63-15.5 606.72-16.74 606.81-17.97 606.85-18.99L606.85-18.99Q606.46-19.29 606.01-19.6 605.56-19.92 605.04-20.2 604.51-20.48 603.94-20.65 603.36-20.83 602.73-20.83L602.73-20.83Q601.41-20.83 600.52-19.97 599.63-19.12 599.08-17.87 598.53-16.63 598.3-15.23 598.07-13.84 598.07-12.77L598.07-12.77Q598.07-8.91 599.08-7.12 600.09-5.32 601.9-5.32L601.9-5.32Q602.63-5.32 603.53-5.74 604.44-6.15 605.36-6.88L605.36-6.88Z" opacity="1" transform="matrix(1,0,0,1,0,0)" fill="#d5b263" class="wordmark-text-0" data-fill-palette-color="primary" id="text-0"></path></svg></g></svg></g></svg></g></svg></g></svg></g></svg></g></svg></g></svg></g><defs></defs></svg><rect width="395.52" height="247.2" fill="none" stroke="none" visibility="hidden"></rect></g></svg></g></svg>